<?xml version="1.0" encoding="utf-8"?>
<!-- Generator: Adobe Illustrator 22.1.0, SVG Export Plug-In . SVG Version: 6.00 Build 0)  -->
<svg version="1.1" id="Layer_1" xmlns="http://www.w3.org/2000/svg" xmlns:xlink="http://www.w3.org/1999/xlink" x="0px" y="0px"
	 viewBox="0 0 164.4 35.5" style="enable-background:new 0 0 164.4 35.5;" xml:space="preserve">
<style type="text/css">
	.st0{fill:#FFFFFF;}
</style>
<title>Uxd_Wht_A_Library</title>
<path class="st0" d="M92,11.5h3.5v14.4h8.2v2.9H92V11.5z"/>
<path class="st0" d="M104.9,11.5h3.3v3h-3.3L104.9,11.5z M104.9,16.4h3.3v12.4h-3.3L104.9,16.4z"/>
<path class="st0" d="M113.5,27.3L113.5,27.3l-0.1,1.6h-3.2V11.5h3.3v6.4h0.1c0.7-1.2,2.1-1.9,3.5-1.8c3.1,0,5.4,2.7,5.4,6.6
	s-2.1,6.6-5.3,6.6C115.8,29.3,114.3,28.6,113.5,27.3z M119.1,22.7c0-2.3-0.9-3.9-2.8-3.9c-2.1,0-2.9,1.7-2.9,4s1.1,3.7,3,3.7
	S119.1,25,119.1,22.7L119.1,22.7z"/>
<path class="st0" d="M127.2,18.4L127.2,18.4c0.8-1.4,1.7-2.1,3.1-2.1c0.3,0,0.5,0,0.8,0.1v2.9h-0.1c-2.2-0.2-3.7,0.9-3.7,3.5v6.1
	h-3.3V16.4h3.2L127.2,18.4z"/>
<path class="st0" d="M139.7,27.5L139.7,27.5c-0.6,1-1.5,1.7-3.7,1.7c-2.6,0-4.3-1.3-4.3-3.8c0-2.7,2.2-3.6,5-4c2.1-0.3,3-0.5,3-1.4
	s-0.7-1.5-2.1-1.5c-1.6,0-2.3,0.6-2.4,1.8h-2.9c0.1-2.2,1.7-4.1,5.4-4.1s5.2,1.7,5.2,4.6V27c0,1,0.1,1.5,0.4,1.7v0.1H140
	C139.8,28.4,139.7,27.9,139.7,27.5z M139.7,24.5v-1.9c-0.7,0.3-1.5,0.6-2.3,0.7c-1.7,0.4-2.6,0.8-2.6,1.9s0.8,1.6,1.9,1.6
	C138.6,26.8,139.7,25.7,139.7,24.5L139.7,24.5z"/>
<path class="st0" d="M148,18.4L148,18.4c0.8-1.4,1.7-2.1,3.1-2.1c0.3,0,0.5,0,0.8,0.1v2.9h-0.1c-2.2-0.2-3.7,0.9-3.7,3.5v6.1h-3.3
	V16.4h3.2V18.4z"/>
<path class="st0" d="M153.8,30.3h1.2c1.3,0,1.8-0.7,1.8-1.7c-0.1-1.2-0.5-2.3-1-3.4l-3.3-8.8h3.5l1.9,5.6c0.4,1.1,0.8,2.7,0.8,2.7
	l0,0c0.2-0.9,0.4-1.8,0.7-2.7l1.8-5.6h3.3l-4.3,12.8c-1,2.8-1.9,3.8-4.4,3.8h-1.9L153.8,30.3z"/>
<path class="st0" d="M0.1,21.5C0,20.6,0,19.6,0,18.7L1.3,3.5h5L5,18.8c-0.3,3.3,1,5.7,4.3,5.7s5.2-2.4,5.5-5.3l1.4-15.7h5L19.8,19
	c-0.6,6-4.5,10.4-10.9,10.4C3.9,29.4,0.7,26.2,0.1,21.5"/>
<path class="st0" d="M22.3,16.3C23,9,27.9,3,36.4,3c2.3,0,4.6,0.6,6.5,1.9l-0.6,6c-1.5-2-3.9-3.2-6.5-3c-5.3,0-8.2,3.7-8.6,8.3
	s1.9,8.2,7.1,8.2c2.7,0,5.3-1.1,7.1-3.1l-0.6,6.2c-2.1,1.2-4.5,1.9-6.9,1.9C25.6,29.4,21.7,23.2,22.3,16.3"/>
<path class="st0" d="M46.9,3.5h5L50,24.1h7.1c0.5,0,2.2,0,2.7,0c0,0.2-0.4,4.8-0.4,4.8H44.6L46.9,3.5z"/>
<path class="st0" d="M72.8,12.9c0.2-0.3,0.3-0.7,0.4-1.1h0.1c0,0.4,0.1,0.7,0.2,1.1c0.3,1.1,2.2,7.6,2.2,7.6h-6.3
	C69.3,20.5,72.7,13.1,72.8,12.9 M74,2.3h-0.3L60.1,28.8h5.3l1.9-4h9.6l1.2,4h5.3L74,2.3z"/>
</svg>
