<svg xmlns="http://www.w3.org/2000/svg" width="365.117" height="81.907" viewBox="0 0 365.117 81.907">
    <defs>
        <style>
            .cls-1{fill:#edb11f}
        </style>
    </defs>
    <g id="Group_834" data-name="Group 834" transform="translate(-262.517 -264.243)">
        <g id="Group_826" data-name="Group 826" transform="translate(262.517 264.243)">
            <path id="Path_104" d="M323.146 319.621c-4.329-3.347-5.987-8.03-9.021-12.6-4.166 2.822-8.267 6.366-12.571 9.124-4.022 2.575-10.859 5.354-16.058 5.75-6.216.476-11.889.424-15.982-1.312a40.935 40.935 0 0 0 64.64.142 11.139 11.139 0 0 1-11.008-1.1" class="cls-1" data-name="Path 104" transform="translate(-260.933 -254.56)"/>
            <path id="Path_105" d="M280.4 307.408c2-1.685 13.929-11.484 19.692-22.159-2.968-7.217-7.863-16.8-17.011-16.564a40.957 40.957 0 0 0-17.259 51.641c3.292-3.663 12.8-11.425 14.578-12.917" class="cls-1" data-name="Path 105" transform="translate(-262.517 -263.239)"/>
            <path id="Path_106" d="M277.69 309.159c4.344 2.965 12.824 5.811 20.531 4.048 2.73-.621 9.194-3.479 11.275-7.066 0 0-8.707-17.926-8.847-17.96-7.229 6.536-16.747 13.415-22.959 20.978" class="cls-1" data-name="Path 106" transform="translate(-259.082 -258.824)"/>
            <path id="Path_107" d="M298.964 264.243a40.828 40.828 0 0 0-16.544 3.493 22.767 22.767 0 0 1 7.22-1.269c11.623 0 14.71 4.056 18.614 10.684 3.287 5.586 17.609 33.148 19.082 36.056 3.613 7.1 6.605 9.287 8.467 9.9a40.961 40.961 0 0 0-36.839-58.866" class="cls-1" data-name="Path 107" transform="translate(-258.012 -264.243)"/>
        </g>
        <g id="Group_828" data-name="Group 828" transform="translate(359.199 264.244)">
            <g id="Group_827" data-name="Group 827">
                <path id="Rectangle_427" d="M0 0H0.89V81.907H0z" class="cls-1" data-name="Rectangle 427"/>
            </g>
        </g>
        <g id="Group_832" data-name="Group 832" transform="translate(374.86 271.069)">
            <g id="Group_831" data-name="Group 831">
                <path id="Path_108" d="M377.966 289.506l-7.375-15.453-7.422 15.453zm-9.044-19.449h3.433l14.8 30.6h-3.944l-3.8-8.028h-17.68l-3.85 8.028h-3.758z" class="cls-1" data-name="Path 108" transform="translate(-354.124 -269.753)"/>
                <g id="Group_829" data-name="Group 829" transform="translate(41.334)">
                    <path id="Path_109" d="M401.465 285.732c4.87 0 8.352-2.346 8.352-6.25v-.082c0-3.735-3.065-5.993-8.3-5.993h-10.025v12.329zm-13.636-15.5h13.961c3.988 0 7.19 1.129 9.231 3.035a8.128 8.128 0 0 1 2.505 5.993v.086c0 5.033-3.71 7.988-8.814 8.858l9.974 12.412h-4.5l-9.416-11.807h-9.277v11.811h-3.663z" class="cls-1" data-name="Path 109" transform="translate(-387.829 -269.712)"/>
                    <path id="Path_110" d="M415.556 285.609v-.085c0-8.6 6.864-15.716 16.42-15.716a17.491 17.491 0 0 1 12.663 4.821l-2.5 2.519a14.557 14.557 0 0 0-10.2-4.168 12.292 12.292 0 0 0-12.573 12.456v.088a12.369 12.369 0 0 0 12.573 12.546c4.452 0 7.374-1.607 10.482-4.384l2.412 2.214a17.435 17.435 0 0 1-12.988 5.338c-9.371 0-16.281-6.9-16.281-15.629" class="cls-1" data-name="Path 110" transform="translate(-381.553 -269.809)"/>
                </g>
                <path id="Path_111" d="M467.769 289.506l-7.377-15.453-7.422 15.453zm-9.046-19.449h3.434l14.8 30.6h-3.947l-3.8-8.028h-17.676l-3.85 8.028h-3.759z" class="cls-1" data-name="Path 111" transform="translate(-333.796 -269.753)"/>
                <g id="Group_830" data-name="Group 830" transform="translate(151.464 .524)">
                    <path id="Path_112" d="M481.3 273.4v24.049h7.6c8.208 0 13.453-5.208 13.453-11.94v-.083c0-6.733-5.245-12.026-13.453-12.026zm-3.664-3.168H488.9c10.2 0 17.257 6.555 17.257 15.105v.088c0 8.549-7.053 15.191-17.257 15.191h-11.269z" class="cls-1" data-name="Path 112" transform="translate(-477.631 -270.236)"/>
                </g>
                <path id="Rectangle_428" d="M0 0H3.665V30.385H0z" class="cls-1" data-name="Rectangle 428" transform="translate(189.968 .523)"/>
                <path id="Path_113" d="M535.518 274.052l7.378 15.453H528.1zm-1.669-4l-14.8 30.6h3.756l3.853-8.029h17.672l3.8 8.029h3.945l-14.8-30.6z" class="cls-1" data-name="Path 113" transform="translate(-316.791 -269.753)"/>
            </g>
        </g>
        <g id="Group_833" data-name="Group 833" transform="translate(375.266 314.081)">
            <path id="Path_114" d="M358.61 304.958h1.538l4.156 9.513h-1.754l-.959-2.281h-4.465l-.971 2.281h-1.7zm2.374 5.761l-1.632-3.777-1.619 3.777z" class="cls-1" data-name="Path 114" transform="translate(-354.455 -304.865)"/>
            <path id="Path_115" d="M366.763 309.792v-.027a4.779 4.779 0 0 1 4.871-4.883 4.927 4.927 0 0 1 3.7 1.47l-1.067 1.228a3.756 3.756 0 0 0-2.644-1.174 3.178 3.178 0 0 0-3.116 3.332v.027a3.183 3.183 0 0 0 3.116 3.347 3.689 3.689 0 0 0 2.711-1.214l1.066 1.078a4.873 4.873 0 0 1-3.831 1.674 4.75 4.75 0 0 1-4.806-4.858z" class="cls-1" data-name="Path 115" transform="translate(-351.669 -304.882)"/>
            <path id="Path_116" d="M375.223 305.014h1.659v3.926h4.506v-3.926h1.66v9.444h-1.66v-3.981h-4.506v3.981h-1.659z" class="cls-1" data-name="Path 116" transform="translate(-349.754 -304.852)"/>
            <path id="Path_117" d="M387.078 304.958h1.538l4.156 9.513h-1.755l-.958-2.281h-4.465l-.971 2.281h-1.7zm2.374 5.761l-1.632-3.777-1.619 3.777z" class="cls-1" data-name="Path 117" transform="translate(-348.011 -304.865)"/>
            <path id="Path_118" d="M392.272 305.014h4.21a3.809 3.809 0 0 1 2.725.943 2.855 2.855 0 0 1 .782 2.038v.027a2.835 2.835 0 0 1-2.239 2.86l2.55 3.576h-1.97l-2.32-3.293h-2.079v3.293h-1.659zm4.089 4.681c1.187 0 1.943-.621 1.943-1.578v-.028c0-1.012-.728-1.564-1.956-1.564h-2.416v3.17z" class="cls-1" data-name="Path 118" transform="translate(-345.895 -304.852)"/>
            <path id="Path_119" d="M400.3 305.014h1.659v9.444H400.3z" class="cls-1" data-name="Path 119" transform="translate(-344.077 -304.852)"/>
            <path id="Path_120" d="M406.157 306.552h-2.995v-1.538h7.664v1.538h-3v7.906h-1.673z" class="cls-1" data-name="Path 120" transform="translate(-343.43 -304.852)"/>
            <path id="Path_121" d="M414.336 304.958h1.538l4.155 9.513h-1.754l-.958-2.281h-4.465l-.973 2.281h-1.7zm2.374 5.761l-1.634-3.777-1.618 3.777z" class="cls-1" data-name="Path 121" transform="translate(-341.841 -304.865)"/>
            <path id="Path_122" d="M419.53 305.014h4.235a3.415 3.415 0 0 1 2.47.835 2.119 2.119 0 0 1 .634 1.566v.027a2.249 2.249 0 0 1-1.349 2.1 2.316 2.316 0 0 1 1.875 2.293v.028c0 1.686-1.389 2.59-3.494 2.59h-4.371zm5.679 2.67c0-.741-.594-1.2-1.659-1.2h-2.388v2.509h2.266c1.066 0 1.781-.418 1.781-1.282zm-1.416 2.713h-2.631v2.591h2.751c1.134 0 1.822-.446 1.822-1.3v-.026c0-.793-.635-1.262-1.942-1.262z" class="cls-1" data-name="Path 122" transform="translate(-339.725 -304.852)"/>
            <path id="Path_123" d="M427.472 305.014h1.659v7.932h4.969v1.512h-6.624z" class="cls-1" data-name="Path 123" transform="translate(-337.927 -304.852)"/>
            <path id="Path_124" d="M434.28 305.014h7v1.486h-5.34v2.455h4.735v1.485h-4.735v2.536h5.409v1.484h-7.07z" class="cls-1" data-name="Path 124" transform="translate(-336.386 -304.852)"/>
            <path id="Path_125" d="M444.95 305.014h7.03v1.511h-5.37v2.575h4.762v1.511h-4.762v3.846h-1.66z" class="cls-1" data-name="Path 125" transform="translate(-333.971 -304.852)"/>
            <path id="Path_126" d="M452.045 310.45v-5.436h1.655v5.37c0 1.752.9 2.683 2.389 2.683s2.373-.877 2.373-2.617v-5.436h1.66v5.356c0 2.821-1.592 4.237-4.062 4.237s-4.015-1.417-4.015-4.157z" class="cls-1" data-name="Path 126" transform="translate(-332.365 -304.852)"/>
            <path id="Path_127" d="M460.493 305.014h1.538l5.06 6.529v-6.529h1.632v9.444h-1.389l-5.208-6.72v6.72h-1.632z" class="cls-1" data-name="Path 127" transform="translate(-330.452 -304.852)"/>
            <path id="Path_128" d="M469.183 305.014h3.517a4.706 4.706 0 0 1 5.018 4.695v.027a4.728 4.728 0 0 1-5.018 4.723h-3.521zm1.659 1.511v6.421h1.858a3.078 3.078 0 0 0 3.279-3.184v-.027a3.1 3.1 0 0 0-3.279-3.211z" class="cls-1" data-name="Path 128" transform="translate(-328.485 -304.852)"/>
            <path id="Path_129" d="M480.744 309.792v-.027a4.938 4.938 0 0 1 9.876-.027v.027a4.938 4.938 0 0 1-9.876.027zm8.136 0v-.027a3.235 3.235 0 0 0-3.211-3.359 3.191 3.191 0 0 0-3.185 3.332v.027a3.225 3.225 0 0 0 3.211 3.347 3.18 3.18 0 0 0 3.185-3.32z" class="cls-1" data-name="Path 129" transform="translate(-325.868 -304.882)"/>
            <path id="Path_130" d="M490.435 305.014h7.028v1.511h-5.369v2.575h4.762v1.511h-4.762v3.846h-1.659z" class="cls-1" data-name="Path 130" transform="translate(-323.675 -304.852)"/>
            <path id="Path_131" d="M355.115 317.766h1.659v7.934h4.966v1.512h-6.625z" class="cls-1" data-name="Path 131" transform="translate(-354.306 -301.966)"/>
            <path id="Path_132" d="M362 317.766h1.659v9.444H362z" class="cls-1" data-name="Path 132" transform="translate(-352.747 -301.966)"/>
            <path id="Path_133" d="M364.894 325.859l1-1.188a4.368 4.368 0 0 0 2.981 1.228c1.025 0 1.673-.486 1.673-1.187v-.026c0-.676-.378-1.04-2.131-1.445-2.011-.486-3.143-1.079-3.143-2.819v-.027c0-1.62 1.349-2.74 3.224-2.74a5.228 5.228 0 0 1 3.426 1.188l-.89 1.253a4.3 4.3 0 0 0-2.563-.971c-.971 0-1.538.5-1.538 1.121v.027c0 .728.432 1.051 2.253 1.484 2 .486 3.022 1.2 3.022 2.765v.027c0 1.768-1.389 2.819-3.372 2.819a5.813 5.813 0 0 1-3.942-1.509z" class="cls-1" data-name="Path 133" transform="translate(-352.092 -301.991)"/>
            <path id="Path_134" d="M372.451 317.766h4.236a3.412 3.412 0 0 1 2.469.835 2.121 2.121 0 0 1 .635 1.566v.027a2.25 2.25 0 0 1-1.35 2.1 2.317 2.317 0 0 1 1.876 2.293v.027c0 1.686-1.391 2.591-3.5 2.591h-4.371zm5.679 2.67c0-.741-.594-1.2-1.659-1.2h-2.388v2.509h2.266c1.066 0 1.781-.418 1.781-1.282zm-1.416 2.713h-2.631v2.591h2.752c1.133 0 1.821-.446 1.821-1.3v-.027c0-.792-.634-1.265-1.942-1.265z" class="cls-1" data-name="Path 134" transform="translate(-350.381 -301.966)"/>
            <path id="Path_135" d="M380.392 317.766h7v1.484h-5.343v2.455h4.736v1.484h-4.736v2.537h5.411v1.484h-7.07z" class="cls-1" data-name="Path 135" transform="translate(-348.584 -301.966)"/>
            <path id="Path_136" d="M390.207 319.3h-2.995v-1.538h7.664v1.538h-2.995v7.906h-1.674z" class="cls-1" data-name="Path 136" transform="translate(-347.04 -301.966)"/>
            <path id="Path_137" d="M398.19 317.766h4.21a3.812 3.812 0 0 1 2.725.943 2.855 2.855 0 0 1 .782 2.038v.027a2.835 2.835 0 0 1-2.239 2.86l2.55 3.576h-1.971l-2.32-3.293h-2.077v3.293h-1.66zm4.087 4.681c1.188 0 1.943-.621 1.943-1.578v-.028c0-1.012-.727-1.564-1.956-1.564h-2.415v3.17z" class="cls-1" data-name="Path 137" transform="translate(-344.555 -301.966)"/>
            <path id="Path_138" d="M409.639 317.71h1.537l4.156 9.513h-1.755l-.958-2.281h-4.464l-.973 2.281h-1.7zm2.374 5.761l-1.634-3.777-1.618 3.777z" class="cls-1" data-name="Path 138" transform="translate(-342.904 -301.978)"/>
            <path id="Path_139" d="M414.711 323.2v-5.436h1.66v5.37c0 1.753.9 2.683 2.388 2.683s2.374-.877 2.374-2.617v-5.436h1.659v5.356c0 2.821-1.592 4.237-4.06 4.237s-4.021-1.415-4.021-4.157z" class="cls-1" data-name="Path 139" transform="translate(-340.815 -301.966)"/>
            <path id="Path_140" d="M422.642 325.859l1-1.188a4.368 4.368 0 0 0 2.983 1.228c1.025 0 1.673-.486 1.673-1.187v-.026c0-.676-.379-1.04-2.131-1.445-2.011-.486-3.144-1.079-3.144-2.819v-.027c0-1.62 1.349-2.74 3.224-2.74a5.232 5.232 0 0 1 3.428 1.188l-.892 1.253a4.291 4.291 0 0 0-2.562-.971c-.971 0-1.538.5-1.538 1.121v.027c0 .728.43 1.051 2.253 1.484 2 .486 3.021 1.2 3.021 2.765v.027c0 1.768-1.388 2.819-3.372 2.819a5.818 5.818 0 0 1-3.943-1.509z" class="cls-1" data-name="Path 140" transform="translate(-339.02 -301.991)"/>
            <path id="Path_141" d="M430.276 317.766h1.659v9.444h-1.659z" class="cls-1" data-name="Path 141" transform="translate(-337.292 -301.966)"/>
            <path id="Path_142" d="M433.687 317.766h1.537l5.06 6.529v-6.529h1.632v9.444h-1.388l-5.208-6.72v6.72h-1.632z" class="cls-1" data-name="Path 142" transform="translate(-336.52 -301.966)"/>
            <path id="Path_143" d="M442.035 322.544v-.027a4.812 4.812 0 0 1 4.871-4.883 5.1 5.1 0 0 1 3.629 1.282l-1.053 1.255a3.69 3.69 0 0 0-2.644-1.012 3.194 3.194 0 0 0-3.062 3.332v.027a3.154 3.154 0 0 0 3.211 3.372 3.847 3.847 0 0 0 2.281-.715v-1.767h-2.415v-1.443h4.02v3.966a6.018 6.018 0 0 1-3.94 1.472 4.687 4.687 0 0 1-4.898-4.859z" class="cls-1" data-name="Path 143" transform="translate(-334.63 -301.995)"/>
            <path id="Path_144" d="M459.715 326.146a4.145 4.145 0 0 1-2.887 1.228 2.79 2.79 0 0 1-3.09-2.7v-.027a2.831 2.831 0 0 1 2.011-2.647 3.061 3.061 0 0 1-.782-1.97v-.028a2.471 2.471 0 0 1 2.711-2.373 2.33 2.33 0 0 1 2.509 2.28v.027c0 1.24-.823 1.983-2.077 2.455l1.619 1.646a13.644 13.644 0 0 0 1.012-1.821l1.256.661a14.291 14.291 0 0 1-1.282 2.145l1.5 1.512-1.24.889zm-.944-.971l-2.1-2.145a1.75 1.75 0 0 0-1.255 1.566v.026A1.438 1.438 0 0 0 456.99 326a2.6 2.6 0 0 0 1.781-.825zm-.054-5.14v-.028a1.02 1.02 0 0 0-1.066-1.066 1.085 1.085 0 0 0-1.133 1.134v.026a2 2 0 0 0 .715 1.4c.967-.346 1.484-.791 1.484-1.466z" class="cls-1" data-name="Path 144" transform="translate(-331.981 -301.995)"/>
            <path id="Path_145" d="M465.256 317.766h3.723c2.214 0 3.59 1.255 3.59 3.157v.026c0 2.119-1.7 3.225-3.777 3.225h-1.876v3.036h-1.659zm3.59 4.91c1.253 0 2.037-.7 2.037-1.686v-.027c0-1.106-.8-1.686-2.037-1.686h-1.93v3.4z" class="cls-1" data-name="Path 145" transform="translate(-329.374 -301.966)"/>
            <path id="Path_146" d="M472.6 317.766h7v1.484h-5.342v2.455H479v1.484h-4.735v2.537h5.41v1.484H472.6z" class="cls-1" data-name="Path 146" transform="translate(-327.711 -301.966)"/>
            <path id="Path_147" d="M482.419 319.3h-2.995v-1.538h7.662v1.538h-2.995v7.906h-1.673z" class="cls-1" data-name="Path 147" transform="translate(-326.167 -301.966)"/>
            <path id="Path_148" d="M487.1 317.766h7v1.484h-5.343v2.455h4.743v1.484h-4.735v2.537h5.409v1.484H487.1z" class="cls-1" data-name="Path 148" transform="translate(-324.429 -301.966)"/>
            <path id="Path_149" d="M494.472 317.766h4.209a3.81 3.81 0 0 1 2.725.943 2.857 2.857 0 0 1 .784 2.038v.027a2.835 2.835 0 0 1-2.241 2.86l2.551 3.576h-1.971l-2.32-3.293h-2.077v3.293h-1.659zm4.087 4.681c1.187 0 1.944-.621 1.944-1.578v-.028c0-1.012-.73-1.564-1.957-1.564h-2.415v3.17z" class="cls-1" data-name="Path 149" transform="translate(-322.761 -301.966)"/>
            <path id="Path_150" d="M505.725 317.766h4.236a3.412 3.412 0 0 1 2.469.835 2.12 2.12 0 0 1 .634 1.566v.027a2.247 2.247 0 0 1-1.349 2.1 2.315 2.315 0 0 1 1.876 2.293v.027c0 1.686-1.391 2.591-3.5 2.591h-4.371zm5.679 2.67c0-.741-.594-1.2-1.659-1.2h-2.388v2.509h2.266c1.066 0 1.781-.418 1.781-1.282zm-1.417 2.713h-2.63v2.591h2.752c1.134 0 1.821-.446 1.821-1.3v-.027c0-.792-.63-1.265-1.942-1.265z" class="cls-1" data-name="Path 150" transform="translate(-320.214 -301.966)"/>
            <path id="Path_151" d="M517.162 317.71h1.538l4.156 9.513H521.1l-.958-2.281h-4.464l-.972 2.281h-1.7zm2.374 5.761l-1.633-3.777-1.618 3.777z" class="cls-1" data-name="Path 151" transform="translate(-318.565 -301.978)"/>
            <path id="Path_152" d="M522.356 317.766h1.66v7.934h4.964v1.512h-6.625z" class="cls-1" data-name="Path 152" transform="translate(-316.449 -301.966)"/>
            <path id="Path_153" d="M529.165 317.766h3.521a4.707 4.707 0 0 1 5.02 4.695v.027a4.729 4.729 0 0 1-5.02 4.723h-3.521zm1.661 1.511v6.423h1.86a3.078 3.078 0 0 0 3.279-3.184v-.027a3.1 3.1 0 0 0-3.279-3.211z" class="cls-1" data-name="Path 153" transform="translate(-314.908 -301.966)"/>
            <path id="Path_154" d="M537.173 317.771h1.794l2.253 7 2.32-7.031h1.4l2.319 7.031 2.254-7h1.74l-3.279 9.51h-1.442l-2.321-6.787-2.32 6.787h-1.431z" class="cls-1" data-name="Path 154" transform="translate(-313.095 -301.971)"/>
            <path id="Path_155" d="M550.12 317.766h1.659v9.444h-1.659z" class="cls-1" data-name="Path 155" transform="translate(-310.164 -301.966)"/>
            <path id="Path_156" d="M553.53 317.766h1.538l5.06 6.529v-6.529h1.632v9.444h-1.389l-5.208-6.72v6.72h-1.633z" class="cls-1" data-name="Path 156" transform="translate(-309.392 -301.966)"/>
        </g>
    </g>
</svg>
