<svg xmlns:dc="http://purl.org/dc/elements/1.1/" xmlns:cc="http://creativecommons.org/ns#" xmlns:rdf="http://www.w3.org/1999/02/22-rdf-syntax-ns#" xmlns:svg="http://www.w3.org/2000/svg" xmlns="http://www.w3.org/2000/svg" xmlns:sodipodi="http://sodipodi.sourceforge.net/DTD/sodipodi-0.dtd" xmlns:inkscape="http://www.inkscape.org/namespaces/inkscape" version="1.1" x="0px" y="0px" viewBox="0 0 100 125"><g transform="translate(0,-952.36218)"><path style="text-indent:0;text-transform:none;direction:ltr;block-progression:tb;baseline-shift:baseline;color:#000000;enable-background:accumulate;" d="m 42.998529,966.36219 c -15.97982,0 -28.99854,13.01861 -28.99854,28.99854 0,15.97987 13.0187,28.99857 28.99854,28.99857 6.91114,0 13.25932,-2.4431 18.24908,-6.4997 l 19.62402,19.624 c 1.17141,1.1714 3.0783,1.1715 4.24978,0 1.17147,-1.1715 1.17147,-3.0471 0,-4.2185 l -19.62401,-19.624 c 4.06479,-4.9923 6.49967,-11.3615 6.49967,-18.28037 0,-15.97993 -13.01871,-28.99854 -28.99854,-28.99854 z m 0,5.9997 c 12.73733,0 22.99884,10.26142 22.99884,22.99884 0,12.73727 -10.26153,22.99887 -22.99884,22.99887 -12.73731,0 -22.99884,-10.2616 -22.99884,-22.99887 0,-12.73742 10.26151,-22.99884 22.99884,-22.99884 z" fill="#000000" fill-opacity="1" stroke="none" marker="none" visibility="visible" display="inline" overflow="visible"/></g></svg>
