<svg xmlns="http://www.w3.org/2000/svg" viewBox="0 0 141.01 26.48" aria-hidden="true" tabindex="0"><defs><style>.cls-1{fill:#fff;}</style></defs><title>UCLA Library Logo</title><g id="Layer_2" data-name="Layer 2"><g id="Layer_1-2" data-name="Layer 1"><path class="cls-1" d="M.07,16.06A18.55,18.55,0,0,1,0,13.7L1.14,1H5.31L4.17,13.81c-.25,2.78.84,4.77,3.62,4.77s4.33-2,4.58-4.48L13.55,1h4.17L16.58,14c-.47,5-3.78,8.73-9.13,8.73a7.11,7.11,0,0,1-7.38-6.6m19.34-4.38C20,5.64,24.07.57,31.19.57a9.78,9.78,0,0,1,5.48,1.58l-.48,5A6.12,6.12,0,0,0,30.8,4.64c-4.43,0-6.86,3.08-7.21,7s1.62,6.87,5.91,6.87a8,8,0,0,0,5.94-2.62L35,21.1a12,12,0,0,1-5.81,1.6c-7,0-10.27-5.23-9.76-10.95M40,1h4.15L42.62,18.26h6c.42,0,1.84,0,2.22-.05l-.38,4H38.1Zm22.7-1h-.29L51,22.2h4.42L57,18.83h8l1,3.37h4.41ZM61.64,8.9A5.63,5.63,0,0,0,62,8H62a7,7,0,0,0,.15.9c.23,1,1.85,6.34,1.85,6.34H58.77S61.59,9,61.64,8.9"/><path class="cls-1" d="M79,22.2v-.42c1.1,0,1.58-.1,1.58-1.12V9.94c0-1-.72-1.12-1.54-1.12V8.4h5.46v.42c-1.36,0-1.9.34-1.9,1.32V20.2c0,1.54.5,1.58,2.44,1.58a14.68,14.68,0,0,0,2.48-.14A3.3,3.3,0,0,0,89.69,20a25.39,25.39,0,0,0,1.44-2.26h.42L90.41,22.2Z"/><path class="cls-1" d="M93.23,22.2v-.38c.9-.06,1.16-.06,1.16-1.1v-4.8c0-.42,0-1-.36-1.22a2,2,0,0,0-.72-.2v-.2c.86-.36,1.76-.72,2.66-1.06v7.48c0,1,.26,1,1.1,1.1v.38Zm2.82-13a1,1,0,0,1-1,1,1.06,1.06,0,0,1-1-1,1,1,0,0,1,2,0Z"/><path class="cls-1" d="M99.73,22.36v-12c0-.28,0-.54-.36-.72a2.27,2.27,0,0,0-.72-.2V9.3l2.66-1.08V14.5a4.84,4.84,0,0,1,3.14-1.16c2.32,0,3.68,2.12,3.68,4.28,0,.94-.36,4.8-4.62,4.8a9.17,9.17,0,0,1-3.06-.62l-.46.56Zm3.84-8.28a2.43,2.43,0,0,0-2.26,1.16v4.4A2.17,2.17,0,0,0,103.22,22h.25c2.66,0,3-3.36,3-4.12C106.43,16.12,105.71,14.08,103.57,14.08Z"/><path class="cls-1" d="M109.79,22.2v-.38c.86-.06,1.12-.06,1.12-1.1V15.66c0-.78-.22-.82-.92-1.16v-.2c.84-.28,1.64-.7,2.46-1v1.44c.5-.58,1.14-1.52,2-1.52.58,0,1.06.3,1.06.92a.75.75,0,0,1-.74.76h0c-.32,0-.66-.34-1.18-.34-.34,0-1.08.56-1.08.88v5.3c0,1,.26,1,1.28,1.1v.38Z"/><path class="cls-1" d="M121.13,15c0-.8-.5-1-1.24-1s-1.76.44-1.76,1v.44c0,.76-.16,1.3-1,1.3a.66.66,0,0,1-.6-.68,1.77,1.77,0,0,1,.72-1.22,6,6,0,0,1,3.52-1.38A1.75,1.75,0,0,1,122.66,15a1.45,1.45,0,0,1,0,.36v5.36c0,.34,0,.94.46.94s.5-.42.56-.68H124c-.1,1-.5,1.52-1.46,1.52a1.45,1.45,0,0,1-1.4-1.5v0c-.94.7-1.58,1.38-2.82,1.38a1.77,1.77,0,0,1-1.78-1.7c0-2.2,3-2.88,4.58-3.58Zm0,2.62c-.9.4-3.22,1.06-3.22,2.3a1.45,1.45,0,0,0,1.4,1.5h0a2.72,2.72,0,0,0,1.78-.78Z"/><path class="cls-1" d="M125.33,22.2v-.38c.86-.06,1.12-.06,1.12-1.1V15.66c0-.78-.22-.82-.92-1.16v-.2c.84-.28,1.64-.7,2.46-1v1.44c.5-.58,1.14-1.52,2-1.52.58,0,1.06.3,1.06.92a.75.75,0,0,1-.74.76h0c-.32,0-.66-.34-1.18-.34-.34,0-1.08.56-1.08.88v5.3c0,1,.26,1,1.28,1.1v.38Z"/><path class="cls-1" d="M131.41,13.56h4.34v.38c-.4,0-1.48,0-1.48.56a2.22,2.22,0,0,0,.24.6l2.74,5.1,1.6-4.62a3.81,3.81,0,0,0,.22-1c0-.66-.9-.64-1.42-.66v-.38H141v.38c-1,0-1.22.34-1.52,1.22l-3.22,9.24c-.34.94-.76,2.1-1.9,2.1a.78.78,0,0,1-.76-.8h0a.76.76,0,0,1,.68-.82h.08c.22,0,.42.1.64.12.56.06.8-.54.94-1l.62-2-3.86-7c-.5-.86-.36-.88-1.3-1Z"/></g></g></svg>
