<svg xmlns="http://www.w3.org/2000/svg" width="150" height="30" viewBox="0 0 150 30"><path fill="#FFF" d="M.06 17.06c-.1-.74-.05-1.83-.05-2.36L1.13 1.98H5.3L4.16 14.81c-.25 2.78.84 4.77 3.62 4.77 2.84 0 4.33-2.02 4.58-4.48l1.18-13.12h4.17l-1.14 12.95c-.47 4.99-3.78 8.73-9.13 8.73-4.18 0-6.87-2.71-7.38-6.6m19.34-4.31c.54-6.11 4.66-11.18 11.78-11.18 1.88 0 3.68.43 5.48 1.58l-.48 5.05c-1.64-2.16-3.59-2.51-5.39-2.51-4.43 0-6.86 3.08-7.21 6.98-.34 3.79 1.62 6.87 5.91 6.87 1.87 0 3.86-.54 5.94-2.62l-.46 5.18a11.93 11.93 0 0 1-5.81 1.6c-7.04 0-10.27-5.23-9.76-10.95M39.98 1.98h4.15l-1.52 17.28h5.95c.42 0 1.84-.02 2.22-.05l-.38 3.99H38.09l1.89-21.22zM62.7 1h-.29L51.03 23.2h4.42l1.6-3.37h8.02l1 3.37 4.41-.01L62.7 1zm-1.07 8.9c.13-.3.26-.68.31-.89h.07c.02.27.07.59.15.9.23.96 1.85 6.34 1.85 6.34h-5.25s2.82-6.21 2.87-6.35m16.03 13.36v-.48c1.25 0 1.79-.11 1.79-1.27V9.35c0-1.15-.82-1.27-1.75-1.27V7.6h6.19v.48c-1.54 0-2.16.38-2.16 1.5V21c0 1.75.57 1.79 2.77 1.79.93 0 1.88 0 2.81-.16 1.2-.2 1.84-.9 2.52-1.86.59-.82 1.13-1.68 1.64-2.56h.48l-1.29 5.06h-13v-.01zM97.38 8.55c0 .59-.46 1.18-1.09 1.18-.64 0-1.18-.55-1.18-1.18s.55-1.16 1.18-1.16c.59.01 1.09.59 1.09 1.16m-3.2 14.71v-.43c1.02-.07 1.32-.07 1.32-1.25v-5.45c0-.48 0-1.11-.41-1.38-.29-.16-.5-.18-.82-.23v-.22c.98-.41 2-.82 3.02-1.21v8.49c0 1.18.3 1.18 1.25 1.25v.43h-4.36zm12.05-9.21c-1.61 0-2.18.77-2.56 1.32v4.99c0 1.5.84 2.72 2.45 2.72 3.02 0 3.36-3.81 3.36-4.67-.01-2.05-.83-4.36-3.25-4.36m-4.36 9.39V9.82c0-.31 0-.61-.41-.82a2.55 2.55 0 0 0-.82-.22v-.16l3.02-1.22v7.13a5.45 5.45 0 0 1 3.56-1.32c2.63 0 4.18 2.4 4.18 4.86 0 1.07-.41 5.45-5.25 5.45a9.9 9.9 0 0 1-3.47-.71l-.52.63h-.29zm11.73-.18v-.43c.98-.07 1.27-.07 1.27-1.25v-5.74c0-.89-.25-.93-1.05-1.32v-.22c.95-.32 1.86-.8 2.79-1.16v1.64c.57-.66 1.29-1.72 2.27-1.72.65 0 1.2.34 1.2 1.04 0 .5-.39.86-.86.86-.36 0-.75-.38-1.34-.38-.38 0-1.22.64-1.22 1v6.01c0 1.18.3 1.18 1.45 1.25v.43h-4.51zm13.18-5.24c-1.02.46-3.66 1.2-3.66 2.61 0 .93.68 1.71 1.64 1.71.86 0 1.36-.38 2.02-.89v-3.43zm0-2.98c0-.91-.57-1.18-1.41-1.18-.82 0-2 .5-2 1.09l.02.5c0 .86-.18 1.48-1.16 1.48-.41 0-.68-.41-.68-.77 0-.5.34-.98.81-1.39a6.84 6.84 0 0 1 4-1.57c1.38 0 2.13.84 2.13 2.2v6.08c0 .39 0 1.07.52 1.07.36 0 .57-.48.64-.77h.36c-.11 1.09-.57 1.73-1.66 1.73-.84 0-1.54-.77-1.57-1.56-1.07.79-1.79 1.56-3.2 1.56-1.04 0-2.02-.84-2.02-1.93 0-2.5 3.36-3.27 5.2-4.06v-2.48h.02zm5.09 8.22v-.43c.98-.07 1.27-.07 1.27-1.25v-5.74c0-.89-.25-.93-1.05-1.32v-.22c.96-.32 1.86-.8 2.8-1.16v1.64c.56-.66 1.29-1.72 2.27-1.72.66 0 1.2.34 1.2 1.04 0 .5-.39.86-.86.86-.36 0-.75-.38-1.34-.38-.39 0-1.23.64-1.23 1v6.01c0 1.18.3 1.18 1.45 1.25v.43h-4.51zm7.21-9.81H144v.43c-.46 0-1.68 0-1.68.63 0 .07.09.34.27.68l3.11 5.79 1.82-5.25c.16-.5.25-.88.25-1.11 0-.75-1.02-.73-1.61-.75v-.43H150v.43c-1.09 0-1.38.39-1.72 1.38l-3.65 10.49c-.39 1.07-.86 2.38-2.16 2.38-.5 0-.86-.43-.86-.91 0-.54.32-.91.86-.93.25.03.48.12.73.14.63.06.91-.61 1.07-1.09l.71-2.25-4.4-8.03c-.57-.98-.41-1-1.47-1.18v-.42h-.03z"/></svg>