<svg id="Layer_1" data-name="Layer 1" xmlns="http://www.w3.org/2000/svg" viewBox="0 0 298.34 26.7"><defs><style>.cls-1{fill:#fff;}</style></defs><title>ucla-library-digital-colletions</title><path class="cls-1" d="M.06,17.06A19.37,19.37,0,0,1,0,14.7L1.13,2H5.3L4.16,14.81c-.25,2.78.84,4.77,3.62,4.77s4.33-2,4.58-4.48L13.54,2h4.17l-1.14,13c-.47,5-3.78,8.73-9.13,8.73a7.11,7.11,0,0,1-7.38-6.6M19.4,12.75c.54-6.11,4.66-11.18,11.78-11.18a9.82,9.82,0,0,1,5.48,1.58l-.48,5a6.15,6.15,0,0,0-5.39-2.51c-4.43,0-6.86,3.08-7.21,7s1.62,6.87,5.91,6.87a8,8,0,0,0,5.94-2.62L35,22.1a12,12,0,0,1-5.81,1.6c-7,0-10.27-5.23-9.76-10.95M40,2h4.15L42.61,19.26h6c.42,0,1.84,0,2.22-.05l-.38,4H38.09ZM62.7,1h-.29L51,23.2h4.42l1.6-3.37h8l1,3.37h4.41ZM61.63,9.9A6.4,6.4,0,0,0,61.94,9H62a5.28,5.28,0,0,0,.15.9c.23,1,1.85,6.34,1.85,6.34H58.76S61.58,10,61.63,9.9" transform="translate(0 -1)"/><path class="cls-1" d="M78.94,23.2v-.42c1.1,0,1.58-.1,1.58-1.12V10.94c0-1-.72-1.12-1.54-1.12V9.4h5.46v.42c-1.36,0-1.9.34-1.9,1.32V21.2c0,1.54.5,1.58,2.44,1.58a14.74,14.74,0,0,0,2.48-.14A3.31,3.31,0,0,0,89.68,21a24,24,0,0,0,1.44-2.26h.42L90.4,23.2Z" transform="translate(0 -1)"/><path class="cls-1" d="M93.22,23.2v-.38c.9-.06,1.16-.06,1.16-1.1v-4.8c0-.42,0-1-.36-1.22a1.85,1.85,0,0,0-.72-.2v-.2c.86-.36,1.76-.72,2.66-1.06v7.48c0,1,.26,1,1.1,1.1v.38Zm2.82-13a1,1,0,0,1-1,1,1.06,1.06,0,0,1-1-1,1,1,0,1,1,2,0Z" transform="translate(0 -1)"/><path class="cls-1" d="M99.72,23.36v-12c0-.28,0-.54-.36-.72a2.27,2.27,0,0,0-.72-.2V10.3l2.66-1.08V15.5a4.8,4.8,0,0,1,3.14-1.16c2.32,0,3.68,2.12,3.68,4.28,0,.94-.36,4.8-4.62,4.8a9,9,0,0,1-3.06-.62l-.46.56Zm3.84-8.28a2.41,2.41,0,0,0-2.26,1.16v4.4a2.16,2.16,0,0,0,2.16,2.4c2.66,0,3-3.36,3-4.12C106.42,17.12,105.7,15.08,103.56,15.08Z" transform="translate(0 -1)"/><path class="cls-1" d="M109.78,23.2v-.38c.86-.06,1.12-.06,1.12-1.1V16.66c0-.78-.22-.82-.92-1.16v-.2c.84-.28,1.64-.7,2.46-1v1.44c.5-.58,1.14-1.52,2-1.52.58,0,1.06.3,1.06.92a.75.75,0,0,1-.76.76c-.32,0-.66-.34-1.18-.34-.34,0-1.08.56-1.08.88v5.3c0,1,.26,1,1.28,1.1v.38Z" transform="translate(0 -1)"/><path class="cls-1" d="M121.12,16c0-.8-.5-1-1.24-1s-1.76.44-1.76,1c0,.12,0,.24,0,.44,0,.76-.16,1.3-1,1.3a.66.66,0,0,1-.6-.68,1.73,1.73,0,0,1,.72-1.22,6,6,0,0,1,3.52-1.38,1.74,1.74,0,0,1,1.88,1.94v5.36c0,.34,0,.94.46.94s.5-.42.56-.68H124c-.1,1-.5,1.52-1.46,1.52A1.45,1.45,0,0,1,121.14,22c-.94.7-1.58,1.38-2.82,1.38a1.77,1.77,0,0,1-1.78-1.7c0-2.2,3-2.88,4.58-3.58Zm0,2.62c-.9.4-3.22,1.06-3.22,2.3a1.45,1.45,0,0,0,1.44,1.5,2.74,2.74,0,0,0,1.78-.78Z" transform="translate(0 -1)"/><path class="cls-1" d="M125.32,23.2v-.38c.86-.06,1.12-.06,1.12-1.1V16.66c0-.78-.22-.82-.92-1.16v-.2c.84-.28,1.64-.7,2.46-1v1.44c.5-.58,1.14-1.52,2-1.52.58,0,1.06.3,1.06.92a.75.75,0,0,1-.76.76c-.32,0-.66-.34-1.18-.34-.34,0-1.08.56-1.08.88v5.3c0,1,.26,1,1.28,1.1v.38Z" transform="translate(0 -1)"/><path class="cls-1" d="M131.4,14.56h4.34v.38c-.4,0-1.48,0-1.48.56a2.1,2.1,0,0,0,.24.6l2.74,5.1,1.6-4.62a3.86,3.86,0,0,0,.22-1c0-.66-.9-.64-1.42-.66v-.38H141v.38c-1,0-1.22.34-1.52,1.22l-3.22,9.24c-.34.94-.76,2.1-1.9,2.1a.78.78,0,0,1-.76-.8.75.75,0,0,1,.76-.82c.22,0,.42.1.64.12.56.06.8-.54.94-1l.62-2L132.7,16c-.5-.86-.36-.88-1.3-1Z" transform="translate(0 -1)"/><path class="cls-1" d="M149.23,9.7v18h-1V9.7Z" transform="translate(0 -1)"/><path class="cls-1" d="M156.8,10.78c1.88,0,3.75-.11,5.64-.11,5.62,0,7.4,3,7.4,6.41,0,4.14-2.65,6.23-7.78,6.23-1.74,0-3.49-.13-5.22-.11v-.38c.87,0,1.3-.09,1.3-1V12.16c0-.92-.65-1-1.34-1ZM160,21.49c0,1.39.86,1.42,2.26,1.44,3.46,0,5.6-2.25,5.6-5.67,0-3.94-1.92-6.21-5.94-6.21-1.35,0-1.92.16-1.92,1.35Z" transform="translate(0 -1)"/><path class="cls-1" d="M171.51,23.2v-.34c.81-.06,1-.06,1-1V17.55c0-.38,0-.89-.32-1.1a1.51,1.51,0,0,0-.65-.18v-.18c.78-.33,1.59-.65,2.4-1v6.74c0,.93.23.93,1,1v.34Zm2.54-11.67a.92.92,0,0,1-.87.94,1,1,0,0,1-.93-.94.9.9,0,1,1,1.8,0Z" transform="translate(0 -1)"/><path class="cls-1" d="M182.24,15.94a3.86,3.86,0,0,1,1.46-.63.67.67,0,0,1,.7.71.53.53,0,0,1-.56.55c-.5,0-.81-.75-1.37-.34a2.2,2.2,0,0,1,.58,1.55,2.75,2.75,0,0,1-3,2.72,6,6,0,0,1-1.26-.2c-.42.27-.87.54-.87,1.1,0,1.21,1.71,1,2.52,1.06,1.5.09,4.07.13,4.07,2.24s-2.72,2.37-4.35,2.37c-1.12,0-3.73-.11-3.73-1.69a2.23,2.23,0,0,1,1.6-2,1.7,1.7,0,0,1-.92-1.5c0-1,.54-1.38,1.34-1.8a2.38,2.38,0,0,1-1.3-2.3,2.72,2.72,0,0,1,2.86-2.6A4.07,4.07,0,0,1,182.24,15.94Zm-1.73,10.83c1.1,0,3-.19,3-1.64,0-1-.79-1.28-1.62-1.3a17.41,17.41,0,0,1-3.55-.25,1.89,1.89,0,0,0-1,1.49C177.38,26.75,179.29,26.77,180.51,26.77Zm-.45-6.67c1.21,0,1.59-1.2,1.59-2.21s-.35-2.29-1.57-2.29-1.55,1.32-1.55,2.32S178.87,20.1,180.06,20.1Z" transform="translate(0 -1)"/><path class="cls-1" d="M185.51,23.2v-.34c.82-.06,1.05-.06,1.05-1V17.55c0-.38,0-.89-.33-1.1a1.47,1.47,0,0,0-.64-.18v-.18c.77-.33,1.58-.65,2.39-1v6.74c0,.93.23.93,1,1v.34Zm2.54-11.67a.92.92,0,0,1-.86.94,1,1,0,0,1-.94-.94.9.9,0,1,1,1.8,0Z" transform="translate(0 -1)"/><path class="cls-1" d="M192.71,16.32v4.76c0,.9.26,1.42,1.25,1.42a3.31,3.31,0,0,0,1.46-.65c.36.18-.06.45-.22.61a2.74,2.74,0,0,1-2,.94c-1.3,0-1.84-1-1.84-2.14V16.32h-.94v-.16c.76-.74,1.59-1.4,2.29-2.2h0v1.46h2.67l-.43.9Z" transform="translate(0 -1)"/><path class="cls-1" d="M200.62,16.68c0-.72-.45-.93-1.12-.93s-1.58.39-1.58.86c0,.11,0,.22,0,.4,0,.68-.14,1.17-.91,1.17a.6.6,0,0,1-.54-.62,1.54,1.54,0,0,1,.65-1.09,5.36,5.36,0,0,1,3.16-1.25A1.58,1.58,0,0,1,202,17V21.8c0,.3,0,.84.41.84s.45-.38.5-.61h.29c-.09.86-.45,1.37-1.31,1.37a1.29,1.29,0,0,1-1.24-1.24,4,4,0,0,1-2.54,1.24,1.6,1.6,0,0,1-1.61-1.53c0-2,2.67-2.59,4.13-3.22Zm0,2.36c-.81.36-2.9,1-2.9,2.07a1.3,1.3,0,0,0,1.3,1.35,2.44,2.44,0,0,0,1.6-.7Z" transform="translate(0 -1)"/><path class="cls-1" d="M207,21.87c0,.93.23.93,1,1v.34H204.5v-.34c.81-.06,1.05-.06,1.05-1V13.06a1.6,1.6,0,0,0-.25-1.13,1.2,1.2,0,0,0-.78-.27v-.22c.85-.21,1.66-.57,2.45-.83Z" transform="translate(0 -1)"/><path class="cls-1" d="M224.78,11.15h.28v4.2h-.32C224.43,13,222.89,11,220.36,11a4.46,4.46,0,0,0-3.79,2.65,8.58,8.58,0,0,0-.67,3.58,6.74,6.74,0,0,0,1.13,4,3.83,3.83,0,0,0,3.23,1.89c2.52,0,4.08-1.85,4.52-4.1h.34v4h-.38l-.5-.84a7.2,7.2,0,0,1-4,1.31c-3.91,0-6.32-2.43-6.32-6.34a6.27,6.27,0,0,1,6.48-6.5,6.86,6.86,0,0,1,3.84,1.32Z" transform="translate(0 -1)"/><path class="cls-1" d="M230.73,23.4a3.84,3.84,0,0,1-3.82-4.09,3.83,3.83,0,1,1,7.64,0A3.83,3.83,0,0,1,230.73,23.4Zm0-7.83c-1.67,0-2.29,1.9-2.29,3.74s.62,3.75,2.29,3.75S233,21.15,233,19.31,232.41,15.57,230.73,15.57Z" transform="translate(0 -1)"/><path class="cls-1" d="M238.47,21.87c0,.93.23.93,1,1v.34H236v-.34c.81-.06,1.05-.06,1.05-1V13.06a1.6,1.6,0,0,0-.25-1.13,1.2,1.2,0,0,0-.78-.27v-.22c.85-.21,1.66-.57,2.45-.83Z" transform="translate(0 -1)"/><path class="cls-1" d="M243.47,21.87c0,.93.24.93,1,1v.34H241v-.34c.81-.06,1-.06,1-1V13.06a1.6,1.6,0,0,0-.25-1.13,1.17,1.17,0,0,0-.77-.27v-.22c.84-.21,1.65-.57,2.44-.83Z" transform="translate(0 -1)"/><path class="cls-1" d="M247.42,17.92a6.06,6.06,0,0,0-.09,1,3.08,3.08,0,0,0,3.18,3.26,3,3,0,0,0,2.72-1.78l.31.09a3.83,3.83,0,0,1-3.68,2.88,3.74,3.74,0,0,1-3.9-4.09,4,4,0,0,1,3.85-4.09,3.46,3.46,0,0,1,3.64,2.7Zm3.85-.41c-.07-1-.47-1.91-1.64-1.91s-1.75.92-2.09,1.91Z" transform="translate(0 -1)"/><path class="cls-1" d="M261.71,20.84c-.65,1.53-1.57,2.56-3.33,2.56-2.4,0-3.6-2-3.6-4.25a3.92,3.92,0,0,1,3.85-3.93c1,0,2.94.6,2.94,1.86,0,.43-.2.74-.67.74-1.24,0-.25-2.25-2.25-2.25-1.78,0-2.34,2-2.34,3.43,0,1.66.83,3.46,2.7,3.46a2.73,2.73,0,0,0,2.43-1.71Z" transform="translate(0 -1)"/><path class="cls-1" d="M265.2,16.32v4.76c0,.9.25,1.42,1.24,1.42a3.26,3.26,0,0,0,1.46-.65c.36.18,0,.45-.21.61a2.75,2.75,0,0,1-2,.94c-1.3,0-1.84-1-1.84-2.14V16.32h-.93v-.16c.75-.74,1.58-1.4,2.28-2.2h0v1.46h2.67l-.44.9Z" transform="translate(0 -1)"/><path class="cls-1" d="M269,23.2v-.34c.81-.06,1-.06,1-1V17.55c0-.38,0-.89-.32-1.1a1.55,1.55,0,0,0-.65-.18v-.18c.77-.33,1.58-.65,2.39-1v6.74c0,.93.24.93,1,1v.34Zm2.54-11.67a.92.92,0,0,1-.87.94,1,1,0,0,1-.93-.94.9.9,0,1,1,1.8,0Z" transform="translate(0 -1)"/><path class="cls-1" d="M277.73,23.4a3.83,3.83,0,0,1-3.82-4.09,3.83,3.83,0,1,1,7.64,0A3.84,3.84,0,0,1,277.73,23.4Zm0-7.83c-1.68,0-2.29,1.9-2.29,3.74s.61,3.75,2.29,3.75S280,21.15,280,19.31,279.4,15.57,277.73,15.57Z" transform="translate(0 -1)"/><path class="cls-1" d="M283,23.2v-.34c.81-.06,1-.06,1-1V17.4a1,1,0,0,0-.88-1.13v-.2c.81-.23,1.53-.56,2.3-.85v1.37a3.27,3.27,0,0,1,2.45-1.37,2.59,2.59,0,0,1,2.63,2.38v4.27c0,.93.49.93,1.1,1v.34H288v-.34c.81-.06,1-.06,1-1v-4a1.7,1.7,0,0,0-1.8-1.89c-.78,0-1.86.75-1.86,1.58v4.27c0,.93.24.93,1,1v.34Z" transform="translate(0 -1)"/><path class="cls-1" d="M293.14,20.7h.21c.33,1.06.69,2.36,2,2.36A1.43,1.43,0,0,0,297,21.44c0-1.1-1.12-1.44-1.93-1.91-1-.58-1.89-1-1.89-2.27a2.21,2.21,0,0,1,2.45-2,7.14,7.14,0,0,1,2.36.56v1.91h-.29a2.33,2.33,0,0,0-2.14-2.12,1.19,1.19,0,0,0-1.24,1.27c0,1.55,4,1.5,4,4.13,0,1.64-1.42,2.43-2.9,2.43a4.45,4.45,0,0,1-2.3-.58Z" transform="translate(0 -1)"/></svg>