<?xml version="1.0" encoding="utf-8"?>
<!-- Generator: Adobe Illustrator 24.0.0, SVG Export Plug-In . SVG Version: 6.00 Build 0)  -->
<svg version="1.1" xmlns="http://www.w3.org/2000/svg" xmlns:xlink="http://www.w3.org/1999/xlink" x="0px" y="0px"
	 viewBox="0 0 328.48 32.73" style="enable-background:new 0 0 328.48 32.73;" xml:space="preserve">
<style type="text/css">
	.st0{fill:#FFFFFF;}
	.st1{fill:#FFFFFF;stroke:#FFFFFF;stroke-miterlimit:10;}
</style>
<g id="Layer_1">
	<g>
		<title>Uxd_Wht_A_Library</title>
		<path class="st0" d="M92.55,9.5h3.5v14.4h8.2v2.9h-11.7V9.5z"/>
		<path class="st0" d="M105.45,9.5h3.3v3h-3.3V9.5z M105.45,14.4h3.3v12.4h-3.3V14.4z"/>
		<path class="st0" d="M114.05,25.3L114.05,25.3l-0.1,1.6h-3.2V9.5h3.3v6.4h0.1c0.7-1.2,2.1-1.9,3.5-1.8c3.1,0,5.4,2.7,5.4,6.6
			s-2.1,6.6-5.3,6.6C116.35,27.3,114.85,26.6,114.05,25.3z M119.65,20.7c0-2.3-0.9-3.9-2.8-3.9c-2.1,0-2.9,1.7-2.9,4s1.1,3.7,3,3.7
			S119.65,23,119.65,20.7L119.65,20.7z"/>
		<path class="st0" d="M127.75,16.4L127.75,16.4c0.8-1.4,1.7-2.1,3.1-2.1c0.3,0,0.5,0,0.8,0.1v2.9h-0.1c-2.2-0.2-3.7,0.9-3.7,3.5
			v6.1h-3.3V14.4h3.2V16.4z"/>
		<path class="st0" d="M140.25,25.5L140.25,25.5c-0.6,1-1.5,1.7-3.7,1.7c-2.6,0-4.3-1.3-4.3-3.8c0-2.7,2.2-3.6,5-4
			c2.1-0.3,3-0.5,3-1.4s-0.7-1.5-2.1-1.5c-1.6,0-2.3,0.6-2.4,1.8h-2.9c0.1-2.2,1.7-4.1,5.4-4.1s5.2,1.7,5.2,4.6V25
			c0,1,0.1,1.5,0.4,1.7v0.1h-3.3C140.35,26.4,140.25,25.9,140.25,25.5z M140.25,22.5v-1.9c-0.7,0.3-1.5,0.6-2.3,0.7
			c-1.7,0.4-2.6,0.8-2.6,1.9s0.8,1.6,1.9,1.6C139.15,24.8,140.25,23.7,140.25,22.5L140.25,22.5z"/>
		<path class="st0" d="M148.55,16.4L148.55,16.4c0.8-1.4,1.7-2.1,3.1-2.1c0.3,0,0.5,0,0.8,0.1v2.9h-0.1c-2.2-0.2-3.7,0.9-3.7,3.5
			v6.1h-3.3V14.4h3.2V16.4z"/>
		<path class="st0" d="M154.35,28.3h1.2c1.3,0,1.8-0.7,1.8-1.7c-0.1-1.2-0.5-2.3-1-3.4l-3.3-8.8h3.5l1.9,5.6
			c0.4,1.1,0.8,2.7,0.8,2.7l0,0c0.2-0.9,0.4-1.8,0.7-2.7l1.8-5.6h3.3l-4.3,12.8c-1,2.8-1.9,3.8-4.4,3.8h-1.9L154.35,28.3z"/>
		<path class="st0" d="M0.65,19.5c-0.1-0.9-0.1-1.9-0.1-2.8l1.3-15.2h5l-1.3,15.3c-0.3,3.3,1,5.7,4.3,5.7s5.2-2.4,5.5-5.3l1.4-15.7
			h5L20.35,17c-0.6,6-4.5,10.4-10.9,10.4C4.45,27.4,1.25,24.2,0.65,19.5"/>
		<path class="st0" d="M22.85,14.3C23.55,7,28.45,1,36.95,1c2.3,0,4.6,0.6,6.5,1.9l-0.6,6c-1.5-2-3.9-3.2-6.5-3
			c-5.3,0-8.2,3.7-8.6,8.3s1.9,8.2,7.1,8.2c2.7,0,5.3-1.1,7.1-3.1l-0.6,6.2c-2.1,1.2-4.5,1.9-6.9,1.9
			C26.15,27.4,22.25,21.2,22.85,14.3"/>
		<path class="st0" d="M47.45,1.5h5l-1.9,20.6h7.1c0.5,0,2.2,0,2.7,0c0,0.2-0.4,4.8-0.4,4.8h-14.8L47.45,1.5z"/>
		<path class="st0" d="M73.35,10.9c0.2-0.3,0.3-0.7,0.4-1.1h0.1c0,0.4,0.1,0.7,0.2,1.1c0.3,1.1,2.2,7.6,2.2,7.6h-6.3
			C69.85,18.5,73.25,11.1,73.35,10.9 M74.55,0.3h-0.3l-13.6,26.5h5.3l1.9-4h9.6l1.2,4h5.3L74.55,0.3z"/>
	</g>
</g>
<g id="Layer_2">
	<g>
		<path class="st1" d="M169.41,12.4c1.11-0.17,2.44-0.29,3.88-0.29c2.62,0,4.49,0.61,5.73,1.76c1.26,1.15,1.99,2.79,1.99,5.08
			c0,2.31-0.71,4.2-2.04,5.5c-1.32,1.32-3.51,2.04-6.26,2.04c-1.3,0-2.39-0.06-3.32-0.17V12.4z M171.24,24.92
			c0.46,0.08,1.13,0.1,1.85,0.1c3.91,0,6.03-2.18,6.03-6c0.02-3.34-1.87-5.46-5.73-5.46c-0.94,0-1.66,0.08-2.14,0.19V24.92z"/>
		<path class="st1" d="M185.39,13.35c0.02,0.63-0.44,1.13-1.18,1.13c-0.65,0-1.11-0.5-1.11-1.13c0-0.65,0.48-1.15,1.15-1.15
			C184.95,12.19,185.39,12.7,185.39,13.35z M183.34,26.36V16.2h1.85v10.16H183.34z"/>
		<path class="st1" d="M197.01,16.2c-0.04,0.73-0.08,1.55-0.08,2.79v5.9c0,2.33-0.46,3.76-1.45,4.64c-0.99,0.92-2.41,1.22-3.7,1.22
			c-1.22,0-2.56-0.29-3.38-0.84l0.46-1.41c0.67,0.42,1.72,0.8,2.98,0.8c1.89,0,3.28-0.99,3.28-3.55v-1.13h-0.04
			c-0.57,0.94-1.66,1.7-3.23,1.7c-2.52,0-4.33-2.14-4.33-4.96c0-3.44,2.25-5.4,4.58-5.4c1.76,0,2.73,0.92,3.17,1.76h0.04l0.08-1.53
			H197.01z M195.1,20.21c0-0.31-0.02-0.59-0.1-0.84c-0.34-1.07-1.24-1.95-2.58-1.95c-1.76,0-3.02,1.49-3.02,3.84
			c0,1.99,1.01,3.65,3,3.65c1.13,0,2.16-0.71,2.56-1.89c0.1-0.31,0.15-0.67,0.15-0.99V20.21z"/>
		<path class="st1" d="M201.92,13.35c0.02,0.63-0.44,1.13-1.18,1.13c-0.65,0-1.11-0.5-1.11-1.13c0-0.65,0.48-1.15,1.15-1.15
			C201.48,12.19,201.92,12.7,201.92,13.35z M199.86,26.36V16.2h1.85v10.16H199.86z"/>
		<path class="st1" d="M207,13.28v2.92h2.65v1.41H207v5.48c0,1.26,0.36,1.97,1.39,1.97c0.48,0,0.84-0.06,1.07-0.13l0.08,1.39
			c-0.36,0.15-0.92,0.25-1.64,0.25c-0.86,0-1.55-0.27-1.99-0.78c-0.52-0.55-0.71-1.45-0.71-2.65v-5.54h-1.57V16.2h1.57v-2.44
			L207,13.28z"/>
		<path class="st1" d="M217.35,26.36l-0.15-1.28h-0.06c-0.57,0.8-1.66,1.51-3.11,1.51c-2.06,0-3.11-1.45-3.11-2.92
			c0-2.46,2.18-3.8,6.11-3.78v-0.21c0-0.84-0.23-2.35-2.31-2.35c-0.94,0-1.93,0.29-2.65,0.76l-0.42-1.22
			c0.84-0.55,2.06-0.9,3.34-0.9c3.11,0,3.86,2.12,3.86,4.16v3.8c0,0.88,0.04,1.74,0.17,2.44H217.35z M217.08,21.18
			c-2.02-0.04-4.3,0.31-4.3,2.29c0,1.2,0.8,1.76,1.74,1.76c1.32,0,2.16-0.84,2.46-1.7c0.06-0.19,0.1-0.4,0.1-0.59V21.18z"/>
		<path class="st1" d="M221.85,11.46h1.85v14.91h-1.85V11.46z"/>
		<path class="st1" d="M241.21,25.9c-0.67,0.34-2.02,0.67-3.74,0.67c-3.99,0-6.99-2.52-6.99-7.16c0-4.43,3-7.43,7.39-7.43
			c1.76,0,2.88,0.38,3.36,0.63l-0.44,1.49c-0.69-0.34-1.68-0.59-2.86-0.59c-3.32,0-5.52,2.12-5.52,5.84c0,3.46,1.99,5.69,5.44,5.69
			c1.11,0,2.25-0.23,2.98-0.59L241.21,25.9z"/>
		<path class="st1" d="M252.4,21.2c0,3.76-2.6,5.4-5.06,5.4c-2.75,0-4.87-2.02-4.87-5.23c0-3.4,2.23-5.4,5.04-5.4
			C250.43,15.97,252.4,18.09,252.4,21.2z M244.34,21.3c0,2.23,1.28,3.91,3.09,3.91c1.76,0,3.09-1.66,3.09-3.95
			c0-1.72-0.86-3.91-3.04-3.91S244.34,19.37,244.34,21.3z"/>
		<path class="st1" d="M254.74,11.46h1.85v14.91h-1.85V11.46z"/>
		<path class="st1" d="M259.69,11.46h1.85v14.91h-1.85V11.46z"/>
		<path class="st1" d="M265.68,21.62c0.04,2.5,1.64,3.53,3.49,3.53c1.32,0,2.12-0.23,2.81-0.52l0.32,1.32
			c-0.65,0.29-1.76,0.63-3.38,0.63c-3.13,0-5-2.06-5-5.12s1.81-5.48,4.77-5.48c3.32,0,4.2,2.92,4.2,4.79c0,0.38-0.04,0.67-0.06,0.86
			H265.68z M271.09,20.3c0.02-1.18-0.48-3-2.56-3c-1.87,0-2.69,1.72-2.83,3H271.09z"/>
		<path class="st1" d="M282.41,25.99c-0.48,0.25-1.55,0.59-2.92,0.59c-3.07,0-5.06-2.08-5.06-5.19c0-3.13,2.14-5.4,5.46-5.4
			c1.09,0,2.06,0.27,2.56,0.52l-0.42,1.43c-0.44-0.25-1.13-0.48-2.14-0.48c-2.33,0-3.59,1.72-3.59,3.84c0,2.35,1.51,3.8,3.53,3.8
			c1.05,0,1.74-0.27,2.27-0.5L282.41,25.99z"/>
		<path class="st1" d="M287.07,13.28v2.92h2.65v1.41h-2.65v5.48c0,1.26,0.36,1.97,1.39,1.97c0.48,0,0.84-0.06,1.07-0.13l0.08,1.39
			c-0.36,0.15-0.92,0.25-1.64,0.25c-0.86,0-1.55-0.27-2-0.78c-0.52-0.55-0.71-1.45-0.71-2.65v-5.54h-1.58V16.2h1.58v-2.44
			L287.07,13.28z"/>
		<path class="st1" d="M293.86,13.35c0.02,0.63-0.44,1.13-1.18,1.13c-0.65,0-1.11-0.5-1.11-1.13c0-0.65,0.48-1.15,1.16-1.15
			C293.42,12.19,293.86,12.7,293.86,13.35z M291.8,26.36V16.2h1.85v10.16H291.8z"/>
		<path class="st1" d="M305.91,21.2c0,3.76-2.6,5.4-5.06,5.4c-2.75,0-4.87-2.02-4.87-5.23c0-3.4,2.23-5.4,5.04-5.4
			C303.94,15.97,305.91,18.09,305.91,21.2z M297.85,21.3c0,2.23,1.28,3.91,3.09,3.91c1.76,0,3.09-1.66,3.09-3.95
			c0-1.72-0.86-3.91-3.04-3.91S297.85,19.37,297.85,21.3z"/>
		<path class="st1" d="M308.24,18.95c0-1.05-0.02-1.91-0.08-2.75h1.64l0.1,1.68h0.04c0.5-0.97,1.68-1.91,3.36-1.91
			c1.41,0,3.59,0.84,3.59,4.33v6.07h-1.85v-5.86c0-1.64-0.61-3-2.35-3c-1.22,0-2.16,0.86-2.48,1.89c-0.08,0.23-0.13,0.55-0.13,0.86
			v6.11h-1.85V18.95z"/>
		<path class="st1" d="M319.65,24.47c0.54,0.36,1.51,0.73,2.44,0.73c1.34,0,1.97-0.67,1.97-1.51c0-0.88-0.52-1.36-1.89-1.87
			c-1.83-0.65-2.69-1.66-2.69-2.88c0-1.64,1.32-2.98,3.51-2.98c1.03,0,1.93,0.29,2.5,0.63l-0.46,1.34c-0.4-0.25-1.13-0.59-2.08-0.59
			c-1.09,0-1.7,0.63-1.7,1.39c0,0.84,0.61,1.22,1.93,1.72c1.76,0.67,2.67,1.55,2.67,3.07c0,1.78-1.39,3.04-3.8,3.04
			c-1.11,0-2.14-0.27-2.86-0.69L319.65,24.47z"/>
	</g>
	<g>
	</g>
	<g>
	</g>
	<g>
	</g>
	<g>
	</g>
	<g>
	</g>
</g>
</svg>
