<svg id="Layer_1" data-name="Layer 1" xmlns="http://www.w3.org/2000/svg" viewBox="0 0 204.46 70.61"><defs><style>.cls-1{fill:#fff;}</style></defs><title>Uxd_Wht_Library</title><path class="cls-1" d="M112,29.2h3.51V43.6h8.15v2.94H112Z"/><path class="cls-1" d="M124.93,29.2h3.3v3h-3.3Zm0,4.9h3.3V46.54h-3.3Z"/><path class="cls-1" d="M133.53,45h-.05v1.56H130.3V29.2h3.3v6.4h.07a3.9,3.9,0,0,1,3.47-1.84c3.13,0,5.36,2.69,5.36,6.57s-2.14,6.57-5.26,6.57A4.13,4.13,0,0,1,133.53,45Zm5.62-4.65c0-2.3-.92-3.9-2.76-3.9-2.09,0-2.86,1.67-2.86,4s1.14,3.74,3,3.74S139.15,42.73,139.15,40.33Z"/><path class="cls-1" d="M147.24,36.09h.07c.75-1.41,1.6-2.14,3.05-2.14a2.19,2.19,0,0,1,.78.1v2.88h-.07c-2.16-.21-3.71.93-3.71,3.54v6.07h-3.3V34.1h3.18Z"/><path class="cls-1" d="M159.66,45.15h0c-.63,1-1.53,1.68-3.66,1.68-2.55,0-4.34-1.34-4.34-3.81,0-2.74,2.23-3.61,5-4,2.06-.29,3-.46,3-1.41s-.71-1.48-2.09-1.48c-1.55,0-2.3.56-2.4,1.75h-2.93c.1-2.18,1.72-4.1,5.36-4.1s5.23,1.68,5.23,4.59v6.32c0,1,.15,1.51.44,1.72v.13H160A3.48,3.48,0,0,1,159.66,45.15Zm0-3V40.28a9.43,9.43,0,0,1-2.3.73c-1.72.39-2.57.77-2.57,1.94s.77,1.57,1.94,1.57C158.64,44.52,159.68,43.36,159.68,42.15Z"/><path class="cls-1" d="M168,36.09h.08c.75-1.41,1.6-2.14,3-2.14a2.23,2.23,0,0,1,.78.1v2.88h-.07c-2.16-.21-3.71.93-3.71,3.54v6.07h-3.3V34.1H168Z"/><path class="cls-1" d="M173.79,48H175c1.3,0,1.84-.68,1.84-1.7a10.62,10.62,0,0,0-1-3.37l-3.34-8.85H176l1.85,5.6c.38,1.14.8,2.71.8,2.71h0a27.93,27.93,0,0,1,.72-2.71l1.75-5.6h3.32l-4.34,12.75c-1,2.77-1.87,3.76-4.39,3.76h-1.94Z"/><path class="cls-1" d="M20.07,39.18A25.11,25.11,0,0,1,20,36.37l1.34-15.21h5L25,36.5c-.3,3.32,1,5.69,4.32,5.69s5.18-2.41,5.48-5.35l1.41-15.68h5L39.78,36.64c-.56,6-4.51,10.42-10.9,10.42-5,0-8.2-3.22-8.81-7.88"/><path class="cls-1" d="M42.3,34c.65-7.3,5.57-13.35,14.08-13.35a11.68,11.68,0,0,1,6.54,1.89l-.57,6a7.36,7.36,0,0,0-6.45-3c-5.29,0-8.19,3.68-8.61,8.33s1.94,8.22,7.07,8.22A9.5,9.5,0,0,0,61.46,39l-.56,6.19A14.31,14.31,0,0,1,54,47.12c-8.42,0-12.28-6.25-11.67-13.09"/><path class="cls-1" d="M66.89,21.16h5L70,41.81h7.12c.5,0,2.19,0,2.65-.05,0,.25-.45,4.77-.45,4.77H64.64Z"/><path class="cls-1" d="M92.76,30.63a6.8,6.8,0,0,0,.37-1.06s.08,0,.08,0a5.79,5.79,0,0,0,.18,1.08c.28,1.15,2.21,7.58,2.21,7.58H89.33s3.36-7.42,3.43-7.59M94,20h-.34L80.09,46.53h5.28l1.91-4h9.58l1.19,4h5.27Z"/></svg>