<svg xmlns="http://www.w3.org/2000/svg" viewBox="0 0 150.09 18" style="margin-top: 0.5px;" aria-hidden="true" tabindex="0"><defs><style>.cls-1{fill:#fff;}</style></defs><title>Asset 20</title><g id="Layer_2" data-name="Layer 2"><g id="Layer_1-2" data-name="Layer 1"><path class="cls-1" d="M1,0V18H0V0Z"/><path class="cls-1" d="M8.57,1.08c1.88,0,3.75-.11,5.64-.11,5.62,0,7.4,3,7.4,6.41,0,4.14-2.65,6.23-7.78,6.23-1.74,0-3.49-.13-5.22-.11v-.38c.87,0,1.3-.09,1.3-1V2.46c0-.92-.65-1-1.34-1Zm3.2,10.71c0,1.39.86,1.42,2.26,1.44,3.46,0,5.6-2.25,5.6-5.67,0-3.94-1.92-6.21-5.94-6.21-1.35,0-1.92.16-1.92,1.35Z"/><path class="cls-1" d="M23.28,13.5v-.34c.81-.06,1-.06,1-1V7.85c0-.38,0-.89-.32-1.1a1.47,1.47,0,0,0-.65-.18V6.39c.78-.33,1.59-.65,2.4-1v6.74c0,.93.23.93,1,1v.34ZM25.82,1.83a.92.92,0,0,1-.87.94A1,1,0,0,1,24,1.83a.9.9,0,1,1,1.8,0Z"/><path class="cls-1" d="M34,6.24a3.88,3.88,0,0,1,1.46-.63.67.67,0,0,1,.7.64v.07a.53.53,0,0,1-.51.55h0c-.5,0-.81-.75-1.37-.34a2.17,2.17,0,0,1,.58,1.55,2.75,2.75,0,0,1-2.77,2.73h-.23a5.91,5.91,0,0,1-1.26-.2c-.42.27-.87.54-.87,1.1,0,1.21,1.71,1,2.52,1.06,1.5.09,4.07.13,4.07,2.24s-2.72,2.37-4.35,2.37c-1.12,0-3.73-.11-3.73-1.69a2.23,2.23,0,0,1,1.6-2,1.7,1.7,0,0,1-.92-1.5c0-1,.54-1.38,1.34-1.8a2.37,2.37,0,0,1-1.3-2.3,2.71,2.71,0,0,1,2.83-2.6h0A4.07,4.07,0,0,1,34,6.24ZM32.28,17.07c1.1,0,3-.19,3-1.64,0-1-.79-1.28-1.62-1.3a17.58,17.58,0,0,1-3.55-.25,1.9,1.9,0,0,0-1,1.49c0,1.68,1.95,1.7,3.17,1.7Zm-.45-6.67c1.21,0,1.59-1.2,1.59-2.21S33.07,5.9,31.85,5.9,30.3,7.22,30.3,8.22s.34,2.18,1.53,2.18Z"/><path class="cls-1" d="M37.28,13.5v-.34c.82-.06,1-.06,1-1V7.85c0-.38,0-.89-.33-1.1a1.47,1.47,0,0,0-.64-.18V6.39c.77-.33,1.58-.65,2.39-1v6.74c0,.93.23.93,1,1v.34ZM39.82,1.83a.92.92,0,0,1-.86.94A1,1,0,0,1,38,1.83a.9.9,0,0,1,1.8,0Z"/><path class="cls-1" d="M44.48,6.62v4.76c0,.9.26,1.42,1.25,1.42a3.32,3.32,0,0,0,1.46-.65c.36.18-.06.45-.22.61a2.75,2.75,0,0,1-2,.94c-1.3,0-1.84-1-1.84-2.14V6.62h-.94V6.46c.76-.74,1.59-1.4,2.29-2.2h0V5.72h2.67l-.43.9Z"/><path class="cls-1" d="M52.39,7c0-.72-.45-.93-1.12-.93s-1.58.39-1.58.86v.4c0,.68-.14,1.17-.91,1.17a.6.6,0,0,1-.54-.62,1.54,1.54,0,0,1,.65-1.09,5.33,5.33,0,0,1,3.16-1.25,1.59,1.59,0,0,1,1.73,1.42,1.45,1.45,0,0,1,0,.36v4.8c0,.3,0,.84.41.84s.45-.38.5-.61H55c-.09.86-.45,1.37-1.31,1.37a1.3,1.3,0,0,1-1.24-1.24,4,4,0,0,1-2.54,1.24,1.6,1.6,0,0,1-1.61-1.53c0-2,2.67-2.59,4.13-3.22Zm0,2.36c-.81.36-2.9,1-2.9,2.07a1.3,1.3,0,0,0,1.25,1.35h0a2.47,2.47,0,0,0,1.6-.7Z"/><path class="cls-1" d="M58.77,12.17c0,.93.23.93,1,1v.34h-3.5v-.34c.81-.06,1-.06,1-1V3.36a1.61,1.61,0,0,0-.25-1.13A1.18,1.18,0,0,0,56.29,2V1.74c.85-.21,1.66-.57,2.45-.83Z"/><path class="cls-1" d="M76.55,1.45h.28v4.2h-.32C76.2,3.3,74.66,1.3,72.13,1.3A4.46,4.46,0,0,0,68.34,4a8.45,8.45,0,0,0-.67,3.58,6.76,6.76,0,0,0,1.13,4A3.83,3.83,0,0,0,72,13.42c2.52,0,4.08-1.85,4.52-4.1h.34v4h-.38l-.5-.84a7.18,7.18,0,0,1-4,1.31c-3.91,0-6.32-2.43-6.32-6.34a6.27,6.27,0,0,1,6-6.5c.15,0,.3,0,.45,0A6.84,6.84,0,0,1,76,2.27Z"/><path class="cls-1" d="M82.5,13.7a3.85,3.85,0,0,1-3.83-3.85,1.93,1.93,0,0,1,0-.24,3.83,3.83,0,1,1,7.64-.55,5,5,0,0,1,0,.55,3.83,3.83,0,0,1-3.56,4.08Zm0-7.83c-1.67,0-2.29,1.9-2.29,3.74s.62,3.75,2.29,3.75,2.27-1.91,2.27-3.75S84.18,5.87,82.5,5.87Z"/><path class="cls-1" d="M90.24,12.17c0,.93.23.93,1,1v.34H87.77v-.34c.81-.06,1-.06,1-1V3.36a1.61,1.61,0,0,0-.25-1.13A1.18,1.18,0,0,0,87.79,2V1.74c.85-.21,1.66-.57,2.45-.83Z"/><path class="cls-1" d="M95.24,12.17c0,.93.24.93,1,1v.34H92.77v-.34c.81-.06,1-.06,1-1V3.36a1.61,1.61,0,0,0-.25-1.13A1.15,1.15,0,0,0,92.75,2V1.74c.84-.21,1.65-.57,2.44-.83Z"/><path class="cls-1" d="M99.19,8.22a5.55,5.55,0,0,0-.09,1A3.08,3.08,0,0,0,102,12.48h.29A3,3,0,0,0,105,10.7l.31.09a3.83,3.83,0,0,1-3.68,2.88,3.74,3.74,0,0,1-3.91-3.56,3.13,3.13,0,0,1,0-.53,4,4,0,0,1,3.85-4.09,3.46,3.46,0,0,1,3.64,2.7ZM103,7.81c-.07-1-.47-1.91-1.64-1.91s-1.75.92-2.09,1.91Z"/><path class="cls-1" d="M113.48,11.14c-.65,1.53-1.57,2.56-3.33,2.56-2.4,0-3.6-2-3.6-4.25a3.92,3.92,0,0,1,3.85-3.93c1,0,2.94.6,2.94,1.86,0,.43-.2.74-.67.74-1.24,0-.25-2.25-2.25-2.25-1.78,0-2.34,2-2.34,3.43,0,1.66.83,3.46,2.7,3.46a2.72,2.72,0,0,0,2.43-1.71Z"/><path class="cls-1" d="M117,6.62v4.76c0,.9.25,1.42,1.24,1.42a3.32,3.32,0,0,0,1.46-.65c.36.18,0,.45-.21.61a2.75,2.75,0,0,1-2,.94c-1.3,0-1.84-1-1.84-2.14V6.62h-.93V6.46c.75-.74,1.58-1.4,2.28-2.2h0V5.72h2.67l-.44.9Z"/><path class="cls-1" d="M120.77,13.5v-.34c.81-.06,1-.06,1-1V7.85c0-.38,0-.89-.32-1.1a1.47,1.47,0,0,0-.65-.18V6.39c.77-.33,1.58-.65,2.39-1v6.74c0,.93.24.93,1,1v.34Zm2.54-11.67a.92.92,0,0,1-.87.94,1,1,0,0,1-.93-.94.9.9,0,0,1,1.8,0Z"/><path class="cls-1" d="M129.5,13.7a3.83,3.83,0,0,1-3.83-3.83,2.26,2.26,0,0,1,0-.26,3.83,3.83,0,1,1,7.64-.55,5,5,0,0,1,0,.55,3.84,3.84,0,0,1-3.58,4.08Zm0-7.83c-1.68,0-2.29,1.9-2.29,3.74s.61,3.75,2.29,3.75,2.27-1.91,2.27-3.75S131.17,5.87,129.5,5.87Z"/><path class="cls-1" d="M134.77,13.5v-.34c.81-.06,1-.06,1-1V7.7a1,1,0,0,0-.85-1.13h0v-.2c.81-.23,1.53-.56,2.3-.85V6.89a3.29,3.29,0,0,1,2.45-1.37,2.59,2.59,0,0,1,2.63,2.38v4.27c0,.93.49.93,1.1,1v.34h-3.6v-.34c.81-.06,1-.06,1-1v-4a1.69,1.69,0,0,0-1.5-1.88,1.51,1.51,0,0,0-.3,0c-.78,0-1.86.75-1.86,1.58v4.27c0,.93.24.93,1,1v.34Z"/><path class="cls-1" d="M144.91,11h.21c.33,1.06.69,2.36,2,2.36a1.44,1.44,0,0,0,1.65-1.18,1.62,1.62,0,0,0,0-.44c0-1.1-1.12-1.44-1.93-1.91-1-.58-1.89-1-1.89-2.27a2.22,2.22,0,0,1,2.4-2h.05a7.14,7.14,0,0,1,2.36.56V8h-.29a2.33,2.33,0,0,0-2.14-2.12,1.19,1.19,0,0,0-1.24,1.14v.13c0,1.55,4,1.5,4,4.13,0,1.64-1.42,2.43-2.9,2.43a4.4,4.4,0,0,1-2.3-.58Z"/></g></g></svg>
