<svg xmlns="http://www.w3.org/2000/svg" viewBox="0 0 142.36 18" aria-hidden="true" tabindex="0"><defs><style>.cls-1{fill:#fff;}</style></defs><title>Asset 22</title><g id="Layer_2" data-name="Layer 2"><g id="Layer_1-2" data-name="Layer 1"><path class="cls-1" d="M1,0V18H0V0Z"/><path class="cls-1" d="M6.58,5.47V5.22l1.82,0,1.94,0a7.16,7.16,0,0,1,2.32.33,3.84,3.84,0,0,1,1.53.92A3.48,3.48,0,0,1,15,7.75a5.27,5.27,0,0,1,.26,1.67A3.75,3.75,0,0,1,14,12.53a6.15,6.15,0,0,1-3.88,1l-1.7,0c-.74,0-1.34,0-1.78,0v-.25a1.39,1.39,0,0,0,.68-.12.64.64,0,0,0,.19-.55V6.14a.55.55,0,0,0-.24-.54A1.29,1.29,0,0,0,6.58,5.47Zm2.1.83v6.06a1,1,0,0,0,.17.64.78.78,0,0,0,.47.26,7.66,7.66,0,0,0,.87.06,4.26,4.26,0,0,0,1.54-.27,3.31,3.31,0,0,0,1.18-.77,3.39,3.39,0,0,0,.75-1.2,4.26,4.26,0,0,0,.26-1.54,5.92,5.92,0,0,0-.24-1.77,3.29,3.29,0,0,0-.74-1.29,3,3,0,0,0-1.23-.81A5.13,5.13,0,0,0,10,5.4a2.15,2.15,0,0,0-1,.17C8.77,5.68,8.68,5.92,8.68,6.3Z"/><path class="cls-1" d="M18.58,13.5H16.27v-.23a1.36,1.36,0,0,0,.58-.12c.08-.07.12-.24.12-.54V9.73a1.15,1.15,0,0,0-.12-.63.82.82,0,0,0-.53-.22V8.76c.49-.21,1-.42,1.6-.64v4.49a1.15,1.15,0,0,0,.06.44.3.3,0,0,0,.18.17,2.51,2.51,0,0,0,.42,0ZM17.39,5.11a.56.56,0,0,1,.41.19.64.64,0,0,1,.17.42.66.66,0,0,1-.17.44.52.52,0,0,1-.41.19A.59.59,0,0,1,17,6.16a.62.62,0,0,1,0-.87A.6.6,0,0,1,17.39,5.11Z"/><path class="cls-1" d="M21.92,8.18a2.72,2.72,0,0,1,1.51.48l.34-.19a3.18,3.18,0,0,1,.32-.16.92.92,0,0,1,.31-.07.49.49,0,0,1,.34.13.45.45,0,0,1,.13.34.36.36,0,0,1-.1.27.37.37,0,0,1-.27.11.7.7,0,0,1-.35-.16.65.65,0,0,0-.35-.16.37.37,0,0,0-.21.09,1.8,1.8,0,0,1,.29.48,1.47,1.47,0,0,1,.09.55,1.63,1.63,0,0,1-.58,1.33,2.19,2.19,0,0,1-1.45.48,6.22,6.22,0,0,1-.84-.13,2.49,2.49,0,0,0-.43.33.54.54,0,0,0-.15.4.55.55,0,0,0,.38.55A2.81,2.81,0,0,0,22,13a7.45,7.45,0,0,1,2,.26,1.17,1.17,0,0,1,.93,1.23,1.19,1.19,0,0,1-.46,1,2.38,2.38,0,0,1-1.09.46,8.15,8.15,0,0,1-1.35.1A8,8,0,0,1,20.93,16a2.48,2.48,0,0,1-1-.33.78.78,0,0,1-.43-.73,1.13,1.13,0,0,1,.31-.79,2,2,0,0,1,.76-.52,1.17,1.17,0,0,1-.4-1.7,2.37,2.37,0,0,1,.67-.49A1.62,1.62,0,0,1,20,9.91a1.59,1.59,0,0,1,.27-.9A1.77,1.77,0,0,1,21,8.4,2.12,2.12,0,0,1,21.92,8.18Zm-1.73,6.57a.9.9,0,0,0,.33.76,1.58,1.58,0,0,0,.74.31,7.36,7.36,0,0,0,1,.06,4,4,0,0,0,1.39-.23.85.85,0,0,0,.6-.87.75.75,0,0,0-.23-.6,1.2,1.2,0,0,0-.58-.23,7.8,7.8,0,0,0-.94,0,5.74,5.74,0,0,1-1.69-.16.93.93,0,0,0-.43.41A1.09,1.09,0,0,0,20.19,14.75ZM21,10a2.08,2.08,0,0,0,.24,1,.82.82,0,0,0,.78.43.85.85,0,0,0,.8-.43A2.06,2.06,0,0,0,23,10a2.25,2.25,0,0,0-.25-1.07.85.85,0,0,0-.8-.46.82.82,0,0,0-.79.47A2.32,2.32,0,0,0,21,10Z"/><path class="cls-1" d="M27.92,13.5H25.61v-.23a1.26,1.26,0,0,0,.57-.12c.09-.07.13-.24.13-.54V9.73a1.05,1.05,0,0,0-.13-.63.77.77,0,0,0-.52-.22V8.76c.49-.21,1-.42,1.6-.64v4.49a1.15,1.15,0,0,0,.06.44.28.28,0,0,0,.18.17,2.37,2.37,0,0,0,.42,0ZM26.73,5.11a.56.56,0,0,1,.41.19.64.64,0,0,1,.17.42.66.66,0,0,1-.17.44.52.52,0,0,1-.41.19.58.58,0,0,1-.44-.19.63.63,0,0,1-.19-.44.59.59,0,0,1,.19-.43A.6.6,0,0,1,26.73,5.11Z"/><path class="cls-1" d="M31.9,8.92H30.44v3.17a1.14,1.14,0,0,0,.17.71.71.71,0,0,0,.63.23,2.19,2.19,0,0,0,1-.43c.07,0,.1.07.1.12a.14.14,0,0,1,0,.1.56.56,0,0,1-.11.11l-.09.08a1.73,1.73,0,0,1-.61.45,1.71,1.71,0,0,1-.75.17,1.08,1.08,0,0,1-.92-.4,1.65,1.65,0,0,1-.3-1V8.92h-.62V8.81l.64-.59a11.89,11.89,0,0,0,.88-.88h0v1h1.77Z"/><path class="cls-1" d="M35.68,10.46V9.16c0-.42-.24-.63-.74-.63a1.52,1.52,0,0,0-.7.18c-.24.11-.36.25-.36.4a1,1,0,0,1,0,.11c0,.06,0,.11,0,.15a1.17,1.17,0,0,1-.13.59.55.55,0,0,1-.49.19A.29.29,0,0,1,33,10a.41.41,0,0,1-.11-.28A1,1,0,0,1,33.34,9a3.58,3.58,0,0,1,1-.61,3,3,0,0,1,1.11-.24,1.1,1.1,0,0,1,.83.31,1.18,1.18,0,0,1,.29.86v3.22c0,.37.1.56.28.56s.28-.14.34-.41h.19c-.06.61-.36.91-.88.91a.77.77,0,0,1-.57-.25.89.89,0,0,1-.26-.58l-.41.32a3.48,3.48,0,0,1-.39.27,2.2,2.2,0,0,1-.41.18,1.75,1.75,0,0,1-.48.06,1.08,1.08,0,0,1-.52-.13,1.29,1.29,0,0,1-.4-.37,1,1,0,0,1-.14-.52,1.24,1.24,0,0,1,.26-.8,2.4,2.4,0,0,1,.68-.58,7.89,7.89,0,0,1,.84-.39Zm0,2.08V10.73l-.79.32a3.83,3.83,0,0,0-.81.46.76.76,0,0,0-.33.6.89.89,0,0,0,.25.64.82.82,0,0,0,.61.26,1.22,1.22,0,0,0,.53-.11A4.17,4.17,0,0,0,35.68,12.54Z"/><path class="cls-1" d="M39.92,5.11v7.5a1.15,1.15,0,0,0,.06.44.3.3,0,0,0,.18.17,2.37,2.37,0,0,0,.42,0v.23H38.27v-.23a1.36,1.36,0,0,0,.58-.12c.08-.07.12-.24.12-.54V6.74a1.45,1.45,0,0,0-.12-.68c-.08-.15-.26-.23-.57-.25V5.66c.24-.06.54-.16.91-.29Z"/><path class="cls-1" d="M44.77,5.47V5.22H47.9v.25h0a1.16,1.16,0,0,0-.81.21,1.05,1.05,0,0,0-.19.72v4.81a3.21,3.21,0,0,0,.17,1,1.81,1.81,0,0,0,.7.84,2.54,2.54,0,0,0,1.43.35,3.19,3.19,0,0,0,1.2-.21,1.85,1.85,0,0,0,.75-.58,2.16,2.16,0,0,0,.39-.84,4.81,4.81,0,0,0,.11-1V6.4a1.12,1.12,0,0,0-.13-.59.62.62,0,0,0-.39-.25,4.62,4.62,0,0,0-.73-.09V5.22h2.59v.25q-1,0-1,.93v4.35a4,4,0,0,1-.27,1.54,2.08,2.08,0,0,1-1,1,4.94,4.94,0,0,1-3.75,0,2.15,2.15,0,0,1-1-1,3.27,3.27,0,0,1-.3-1.43V6.4a2.7,2.7,0,0,0-.05-.6.35.35,0,0,0-.23-.24A1.69,1.69,0,0,0,44.77,5.47Z"/><path class="cls-1" d="M56.24,13.5H53.92v-.23a1.36,1.36,0,0,0,.58-.12c.08-.07.12-.24.12-.54v-3a.8.8,0,0,0-.13-.51A.87.87,0,0,0,54,8.88V8.75l.48-.16L55,8.4l.57-.22v.91c.23-.23.41-.41.54-.52a1.72,1.72,0,0,1,1.09-.39,1.8,1.8,0,0,1,.84.21A1.85,1.85,0,0,1,58.7,9a1.35,1.35,0,0,1,.25.8v2.84c0,.28.06.46.17.52a1.3,1.3,0,0,0,.57.14v.23H57.31v-.23a1.26,1.26,0,0,0,.57-.12Q58,13,58,12.61V10a1.3,1.3,0,0,0-.31-.92,1.12,1.12,0,0,0-.88-.34,1.17,1.17,0,0,0-.55.15,1.37,1.37,0,0,0-.49.4.8.8,0,0,0-.2.5v2.85q0,.44.12.54a1.23,1.23,0,0,0,.55.12Z"/><path class="cls-1" d="M62.93,13.5H60.62v-.23a1.26,1.26,0,0,0,.57-.12c.08-.07.12-.24.12-.54V9.73a1.15,1.15,0,0,0-.12-.63.79.79,0,0,0-.52-.22V8.76c.49-.21,1-.42,1.59-.64v4.49a1.15,1.15,0,0,0,.06.44.29.29,0,0,0,.19.17,2.37,2.37,0,0,0,.42,0ZM61.74,5.11a.54.54,0,0,1,.4.19.6.6,0,0,1,.17.42.65.65,0,0,1-.16.44.53.53,0,0,1-.41.19.58.58,0,0,1-.44-.19.59.59,0,0,1-.19-.44.61.61,0,0,1,.18-.43A.63.63,0,0,1,61.74,5.11Z"/><path class="cls-1" d="M66.35,13.63A2.46,2.46,0,0,1,65,13.29a2.27,2.27,0,0,1-.85-.94A3,3,0,0,1,63.9,11a3.36,3.36,0,0,1,.2-1.16,2.52,2.52,0,0,1,.59-.9,2.45,2.45,0,0,1,.91-.58,3.27,3.27,0,0,1,1.15-.2,2.65,2.65,0,0,1,.44,0l.55.13a2.28,2.28,0,0,0,.5.08,1.15,1.15,0,0,0,.67-.32v7.24a.68.68,0,0,0,.07.33.26.26,0,0,0,.19.12,2.87,2.87,0,0,0,.47,0v.23h-2.5v-.23a2.32,2.32,0,0,0,.66-.1c.11-.05.17-.19.17-.4V13a2.71,2.71,0,0,1-.77.46A2.15,2.15,0,0,1,66.35,13.63ZM68,12.22V9.3a.75.75,0,0,0-.35-.67,1.5,1.5,0,0,0-.84-.22,1.76,1.76,0,0,0-.93.26,1.92,1.92,0,0,0-.68.85,4,4,0,0,0-.25,1.53,3.29,3.29,0,0,0,.18,1.07,1.9,1.9,0,0,0,.57.87,1.35,1.35,0,0,0,1,.34,1.38,1.38,0,0,0,.63-.14,1.35,1.35,0,0,0,.52-.39A1,1,0,0,0,68,12.22Z"/><path class="cls-1" d="M76.24,13.09l-1.59.54v-.84a2.52,2.52,0,0,1-.83.61,2.29,2.29,0,0,1-1,.23,2,2,0,0,1-.94-.18,1,1,0,0,1-.47-.5,2.39,2.39,0,0,1-.12-.81V8.86a.24.24,0,0,0-.14-.24,1.7,1.7,0,0,0-.57-.07V8.32h1.66v4.14c0,.51.36.76,1.08.76a1.2,1.2,0,0,0,1-.41,1.63,1.63,0,0,0,.36-1.06V8.86a.24.24,0,0,0-.14-.24A1.56,1.56,0,0,0,74,8.55V8.32h1.64v4.09c0,.23.06.37.18.43a1.06,1.06,0,0,0,.45.09Z"/><path class="cls-1" d="M82.26,10h-4a4.39,4.39,0,0,0-.06.69,2.29,2.29,0,0,0,.26,1.12,1.92,1.92,0,0,0,.75.77,2.13,2.13,0,0,0,1.11.28,1.94,1.94,0,0,0,1.09-.33,1.77,1.77,0,0,0,.72-.86l.2.06a3.09,3.09,0,0,1-.53,1,2.35,2.35,0,0,1-.83.68,2.38,2.38,0,0,1-1.08.24A2.5,2.5,0,0,1,78,12.88a2.77,2.77,0,0,1-.7-2,2.87,2.87,0,0,1,.34-1.34,2.57,2.57,0,0,1,.92-1,2.39,2.39,0,0,1,1.31-.38,2.67,2.67,0,0,1,1.57.46A2.19,2.19,0,0,1,82.26,10Zm-3.94-.27H80.8c-.06-.85-.42-1.28-1.09-1.28S78.61,8.86,78.32,9.71Z"/><path class="cls-1" d="M93.15,6l.39-.52h.19v2.8h-.22A4.05,4.05,0,0,0,93,6.81a3,3,0,0,0-1-1,2.6,2.6,0,0,0-1.44-.4,2.39,2.39,0,0,0-1.47.51,3.32,3.32,0,0,0-1.06,1.26,5.61,5.61,0,0,0-.44,2.39A5.19,5.19,0,0,0,88,11.31a3.69,3.69,0,0,0,1,1.51,2.26,2.26,0,0,0,1.58.6,2.74,2.74,0,0,0,2-.78,3.75,3.75,0,0,0,1-2h.22v2.68h-.25l-.33-.57a4.74,4.74,0,0,1-2.69.88,5.14,5.14,0,0,1-1.75-.29,3.79,3.79,0,0,1-1.34-.85,3.87,3.87,0,0,1-.84-1.33,5.1,5.1,0,0,1-.28-1.75,4.47,4.47,0,0,1,.55-2.23,4,4,0,0,1,1.54-1.55,4.46,4.46,0,0,1,2.22-.56,3.88,3.88,0,0,1,1.29.22A6.75,6.75,0,0,1,93.15,6Z"/><path class="cls-1" d="M94.74,10.87a3,3,0,0,1,.18-1A2.42,2.42,0,0,1,95.44,9a2.31,2.31,0,0,1,.79-.59,2.44,2.44,0,0,1,1-.21,2.61,2.61,0,0,1,1.06.21,2.31,2.31,0,0,1,.82.58,2.72,2.72,0,0,1,.52.87,3.18,3.18,0,0,1,.18,1.08,3.06,3.06,0,0,1-.31,1.4,2.32,2.32,0,0,1-.9,1,2.52,2.52,0,0,1-1.35.35,2.47,2.47,0,0,1-1.35-.36,2.35,2.35,0,0,1-.87-1A3.19,3.19,0,0,1,94.74,10.87Zm1,.05a4,4,0,0,0,.36,1.69,1.19,1.19,0,0,0,1.15.79,1.25,1.25,0,0,0,.88-.33,2,2,0,0,0,.5-.84,3.55,3.55,0,0,0,.15-1c0-1.87-.5-2.8-1.52-2.8a1.1,1.1,0,0,0-.88.41,2.57,2.57,0,0,0-.5,1A5,5,0,0,0,95.76,10.92Z"/><path class="cls-1" d="M102.44,5.11v7.5a1.15,1.15,0,0,0,.06.44.3.3,0,0,0,.18.17,2.37,2.37,0,0,0,.42,0v.23h-2.31v-.23a1.36,1.36,0,0,0,.58-.12c.08-.07.12-.24.12-.54V6.74a1.45,1.45,0,0,0-.12-.68c-.08-.15-.27-.23-.57-.25V5.66c.24-.06.54-.16.91-.29Z"/><path class="cls-1" d="M105.78,5.11v7.5a1.46,1.46,0,0,0,0,.44.29.29,0,0,0,.19.17,2.37,2.37,0,0,0,.42,0v.23h-2.31v-.23a1.26,1.26,0,0,0,.57-.12c.08-.07.13-.24.13-.54V6.74a1.45,1.45,0,0,0-.12-.68c-.08-.15-.27-.23-.57-.25V5.66c.24-.06.54-.16.91-.29Z"/><path class="cls-1" d="M112.43,10h-4a4.39,4.39,0,0,0-.06.69,2.29,2.29,0,0,0,.26,1.12,1.92,1.92,0,0,0,.75.77,2.13,2.13,0,0,0,1.11.28,1.94,1.94,0,0,0,1.09-.33,1.77,1.77,0,0,0,.72-.86l.2.06a3.09,3.09,0,0,1-.53,1,2.35,2.35,0,0,1-.83.68,2.38,2.38,0,0,1-1.08.24,2.5,2.5,0,0,1-1.91-.75,2.77,2.77,0,0,1-.7-2,2.87,2.87,0,0,1,.34-1.34,2.57,2.57,0,0,1,.92-1A2.39,2.39,0,0,1,110,8.18a2.67,2.67,0,0,1,1.57.46A2.19,2.19,0,0,1,112.43,10Zm-3.94-.27H111c-.06-.85-.42-1.28-1.09-1.28S108.78,8.86,108.49,9.71Z"/><path class="cls-1" d="M117.85,11.87l.18.06a3.47,3.47,0,0,1-.87,1.27,2,2,0,0,1-1.35.43,2.18,2.18,0,0,1-1.31-.39,2.49,2.49,0,0,1-.82-1,3.6,3.6,0,0,1-.27-1.4,2.56,2.56,0,0,1,.35-1.3,2.67,2.67,0,0,1,.93-1A2.44,2.44,0,0,1,116,8.18a2.71,2.71,0,0,1,.83.15,2,2,0,0,1,.79.42.86.86,0,0,1,.33.67c0,.33-.14.49-.44.49s-.3-.05-.35-.16a2.78,2.78,0,0,1-.2-.55,1.42,1.42,0,0,0-.3-.59.92.92,0,0,0-.65-.2,1.22,1.22,0,0,0-.9.35,2,2,0,0,0-.51.88,3.84,3.84,0,0,0-.15,1.07,2.79,2.79,0,0,0,.47,1.6,1.49,1.49,0,0,0,1.33.7,1.56,1.56,0,0,0,1-.32A2.14,2.14,0,0,0,117.85,11.87Z"/><path class="cls-1" d="M121.75,8.92h-1.46v3.17a1.22,1.22,0,0,0,.16.71.75.75,0,0,0,.64.23,2.23,2.23,0,0,0,1-.43c.07,0,.1.07.1.12a.14.14,0,0,1,0,.1l-.11.11a.24.24,0,0,0-.09.08,1.68,1.68,0,0,1-.62.45,1.63,1.63,0,0,1-.74.17,1.08,1.08,0,0,1-.92-.4,1.65,1.65,0,0,1-.3-1V8.92h-.63V8.81l.64-.59a12.45,12.45,0,0,0,.89-.88h0v1H122Z"/><path class="cls-1" d="M125.1,13.5h-2.31v-.23a1.26,1.26,0,0,0,.57-.12c.09-.07.13-.24.13-.54V9.73a1.05,1.05,0,0,0-.13-.63.77.77,0,0,0-.52-.22V8.76c.49-.21,1-.42,1.6-.64v4.49a1.15,1.15,0,0,0,.06.44.3.3,0,0,0,.18.17,2.37,2.37,0,0,0,.42,0Zm-1.19-8.39a.56.56,0,0,1,.41.19.64.64,0,0,1,.17.42.66.66,0,0,1-.17.44.52.52,0,0,1-.41.19.58.58,0,0,1-.44-.19.59.59,0,0,1,0-.87A.6.6,0,0,1,123.91,5.11Z"/><path class="cls-1" d="M126.07,10.87a2.77,2.77,0,0,1,.19-1,2.55,2.55,0,0,1,.51-.86,2.45,2.45,0,0,1,.8-.59,2.4,2.4,0,0,1,1-.21,2.67,2.67,0,0,1,1.06.21,2.4,2.4,0,0,1,.82.58,2.92,2.92,0,0,1,.52.87,3.32,3.32,0,0,1-.13,2.48,2.32,2.32,0,0,1-.9,1,2.76,2.76,0,0,1-2.71,0,2.41,2.41,0,0,1-.87-1A3.19,3.19,0,0,1,126.07,10.87Zm1,.05a4,4,0,0,0,.36,1.69,1.2,1.2,0,0,0,1.15.79,1.22,1.22,0,0,0,.88-.33,1.87,1.87,0,0,0,.5-.84,3.24,3.24,0,0,0,.16-1c0-1.87-.51-2.8-1.52-2.8a1.12,1.12,0,0,0-.89.41,2.56,2.56,0,0,0-.49,1A4.47,4.47,0,0,0,127.09,10.92Z"/><path class="cls-1" d="M134.42,13.5H132.1v-.23a1.36,1.36,0,0,0,.58-.12c.08-.07.12-.24.12-.54v-3a.8.8,0,0,0-.13-.51.87.87,0,0,0-.46-.25V8.75l.48-.16.5-.19.56-.22v.91l.54-.52a1.78,1.78,0,0,1,1.09-.39,1.8,1.8,0,0,1,.84.21,1.85,1.85,0,0,1,.66.58,1.36,1.36,0,0,1,.26.8v2.84c0,.28.05.46.16.52a1.3,1.3,0,0,0,.57.14v.23h-2.38v-.23a1.26,1.26,0,0,0,.57-.12.77.77,0,0,0,.13-.54V10a1.3,1.3,0,0,0-.32-.92,1.12,1.12,0,0,0-.88-.34,1.17,1.17,0,0,0-.55.15,1.37,1.37,0,0,0-.49.4.8.8,0,0,0-.2.5v2.85q0,.44.12.54a1.23,1.23,0,0,0,.55.12Z"/><path class="cls-1" d="M138.89,13.25V11.83H139a7.17,7.17,0,0,0,.3.83,1.37,1.37,0,0,0,.39.52,1.2,1.2,0,0,0,1.46-.06,1.09,1.09,0,0,0,.26-.79.83.83,0,0,0-.3-.68,5.71,5.71,0,0,0-.94-.58,3.94,3.94,0,0,1-1-.66,1.18,1.18,0,0,1-.32-.87,1.18,1.18,0,0,1,.49-1,1.87,1.87,0,0,1,1.14-.36,3.06,3.06,0,0,1,.73.1q.38.11.84.27V9.83h-.19a2.19,2.19,0,0,0-.26-.7,1.5,1.5,0,0,0-.48-.52,1.24,1.24,0,0,0-.69-.2.78.78,0,0,0-.6.24.85.85,0,0,0-.23.61.58.58,0,0,0,.27.52,10.57,10.57,0,0,0,1,.54,4,4,0,0,1,1.08.73,1.32,1.32,0,0,1,.37,1,1.47,1.47,0,0,1-.27.89,1.69,1.69,0,0,1-.71.55,2.56,2.56,0,0,1-1,.18A3.07,3.07,0,0,1,138.89,13.25Z"/></g></g></svg>