<?xml version="1.0" encoding="utf-8"?>
<!-- Generator: Adobe Illustrator 24.0.0, SVG Export Plug-In . SVG Version: 6.00 Build 0)  -->
<svg version="1.1" xmlns="http://www.w3.org/2000/svg" xmlns:xlink="http://www.w3.org/1999/xlink" x="0px" y="0px"
	 viewBox="0 0 333.32 32.17" style="enable-background:new 0 0 333.32 32.17;" xml:space="preserve">
<style type="text/css">
	.st0{fill:#FFFFFF;}
	.st1{fill:#FFFFFF;stroke:#FFFFFF;stroke-miterlimit:10;}
</style>
<g id="Layer_1">
	<g>
		<title>Uxd_Wht_A_Library</title>
		<path class="st0" d="M92.55,9.5h3.5v14.4h8.2v2.9h-11.7V9.5z"/>
		<path class="st0" d="M105.45,9.5h3.3v3h-3.3V9.5z M105.45,14.4h3.3v12.4h-3.3V14.4z"/>
		<path class="st0" d="M114.05,25.3L114.05,25.3l-0.1,1.6h-3.2V9.5h3.3v6.4h0.1c0.7-1.2,2.1-1.9,3.5-1.8c3.1,0,5.4,2.7,5.4,6.6
			s-2.1,6.6-5.3,6.6C116.35,27.3,114.85,26.6,114.05,25.3z M119.65,20.7c0-2.3-0.9-3.9-2.8-3.9c-2.1,0-2.9,1.7-2.9,4s1.1,3.7,3,3.7
			S119.65,23,119.65,20.7L119.65,20.7z"/>
		<path class="st0" d="M127.75,16.4L127.75,16.4c0.8-1.4,1.7-2.1,3.1-2.1c0.3,0,0.5,0,0.8,0.1v2.9h-0.1c-2.2-0.2-3.7,0.9-3.7,3.5
			v6.1h-3.3V14.4h3.2V16.4z"/>
		<path class="st0" d="M140.25,25.5L140.25,25.5c-0.6,1-1.5,1.7-3.7,1.7c-2.6,0-4.3-1.3-4.3-3.8c0-2.7,2.2-3.6,5-4
			c2.1-0.3,3-0.5,3-1.4s-0.7-1.5-2.1-1.5c-1.6,0-2.3,0.6-2.4,1.8h-2.9c0.1-2.2,1.7-4.1,5.4-4.1s5.2,1.7,5.2,4.6V25
			c0,1,0.1,1.5,0.4,1.7v0.1h-3.3C140.35,26.4,140.25,25.9,140.25,25.5z M140.25,22.5v-1.9c-0.7,0.3-1.5,0.6-2.3,0.7
			c-1.7,0.4-2.6,0.8-2.6,1.9s0.8,1.6,1.9,1.6C139.15,24.8,140.25,23.7,140.25,22.5L140.25,22.5z"/>
		<path class="st0" d="M148.55,16.4L148.55,16.4c0.8-1.4,1.7-2.1,3.1-2.1c0.3,0,0.5,0,0.8,0.1v2.9h-0.1c-2.2-0.2-3.7,0.9-3.7,3.5
			v6.1h-3.3V14.4h3.2V16.4z"/>
		<path class="st0" d="M154.35,28.3h1.2c1.3,0,1.8-0.7,1.8-1.7c-0.1-1.2-0.5-2.3-1-3.4l-3.3-8.8h3.5l1.9,5.6
			c0.4,1.1,0.8,2.7,0.8,2.7l0,0c0.2-0.9,0.4-1.8,0.7-2.7l1.8-5.6h3.3l-4.3,12.8c-1,2.8-1.9,3.8-4.4,3.8h-1.9L154.35,28.3z"/>
		<path class="st0" d="M0.65,19.5c-0.1-0.9-0.1-1.9-0.1-2.8l1.3-15.2h5l-1.3,15.3c-0.3,3.3,1,5.7,4.3,5.7s5.2-2.4,5.5-5.3l1.4-15.7
			h5L20.35,17c-0.6,6-4.5,10.4-10.9,10.4C4.45,27.4,1.25,24.2,0.65,19.5"/>
		<path class="st0" d="M22.85,14.3C23.55,7,28.45,1,36.95,1c2.3,0,4.6,0.6,6.5,1.9l-0.6,6c-1.5-2-3.9-3.2-6.5-3
			c-5.3,0-8.2,3.7-8.6,8.3s1.9,8.2,7.1,8.2c2.7,0,5.3-1.1,7.1-3.1l-0.6,6.2c-2.1,1.2-4.5,1.9-6.9,1.9
			C26.15,27.4,22.25,21.2,22.85,14.3"/>
		<path class="st0" d="M47.45,1.5h5l-1.9,20.6h7.1c0.5,0,2.2,0,2.7,0c0,0.2-0.4,4.8-0.4,4.8h-14.8L47.45,1.5z"/>
		<path class="st0" d="M73.35,10.9c0.2-0.3,0.3-0.7,0.4-1.1h0.1c0,0.4,0.1,0.7,0.2,1.1c0.3,1.1,2.2,7.6,2.2,7.6h-6.3
			C69.85,18.5,73.25,11.1,73.35,10.9 M74.55,0.3h-0.3l-13.6,26.5h5.3l1.9-4h9.6l1.2,4h5.3L74.55,0.3z"/>
	</g>
</g>
<g id="Layer_2">
	<g>
		<path class="st1" d="M169.51,11.3h6.02c2.04,0,3.63,0.73,4.76,2.2c1.01,1.33,1.51,3.02,1.51,5.1c0,1.6-0.3,3.05-0.89,4.34
			c-1.05,2.28-2.84,3.42-5.39,3.42h-6V11.3z M175.13,24.62c0.67,0,1.23-0.07,1.66-0.22c0.78-0.27,1.41-0.78,1.91-1.54
			c0.39-0.61,0.68-1.39,0.85-2.34c0.1-0.57,0.15-1.09,0.15-1.58c0-1.87-0.36-3.32-1.09-4.35s-1.89-1.55-3.5-1.55h-3.54v11.57H175.13
			z"/>
		<path class="st1" d="M184.34,11.3h1.88v2.09h-1.88V11.3z M184.34,15.43h1.88v10.93h-1.88V15.43z"/>
		<path class="st1" d="M195.11,15.82c0.35,0.24,0.7,0.59,1.06,1.05v-1.38h1.7v9.99c0,1.39-0.2,2.5-0.61,3.3
			c-0.76,1.49-2.2,2.24-4.32,2.24c-1.18,0-2.17-0.27-2.97-0.79c-0.8-0.53-1.25-1.36-1.35-2.49h1.88c0.09,0.49,0.27,0.87,0.53,1.14
			c0.41,0.41,1.07,0.62,1.96,0.62c1.41,0,2.33-0.5,2.76-1.5c0.26-0.59,0.38-1.64,0.36-3.15c-0.37,0.56-0.81,0.98-1.33,1.25
			s-1.2,0.41-2.05,0.41c-1.18,0-2.22-0.42-3.11-1.27c-0.89-0.84-1.33-2.24-1.33-4.19c0-1.84,0.45-3.27,1.34-4.31
			s1.98-1.55,3.24-1.55C193.72,15.19,194.47,15.4,195.11,15.82z M195.33,17.8c-0.56-0.66-1.27-0.98-2.13-0.98
			c-1.29,0-2.18,0.61-2.65,1.83c-0.25,0.65-0.38,1.5-0.38,2.55c0,1.24,0.25,2.18,0.75,2.83c0.5,0.65,1.17,0.97,2.01,0.97
			c1.32,0,2.25-0.6,2.79-1.79c0.3-0.68,0.45-1.47,0.45-2.37C196.17,19.47,195.89,18.46,195.33,17.8z"/>
		<path class="st1" d="M200.68,11.3h1.88v2.09h-1.88V11.3z M200.68,15.43h1.88v10.93h-1.88V15.43z"/>
		<path class="st1" d="M206.01,12.32h1.87v3.07h1.75v1.51h-1.75v7.17c0,0.38,0.13,0.64,0.39,0.77c0.14,0.08,0.38,0.11,0.72,0.11
			c0.09,0,0.18,0,0.29-0.01s0.22-0.02,0.36-0.03v1.47c-0.21,0.06-0.43,0.11-0.66,0.13s-0.48,0.04-0.74,0.04
			c-0.86,0-1.45-0.22-1.75-0.66c-0.31-0.44-0.46-1.01-0.46-1.72v-7.27h-1.49v-1.51h1.49V12.32z"/>
		<path class="st1" d="M217.89,19.72c0.42-0.05,0.71-0.23,0.85-0.53c0.08-0.17,0.12-0.4,0.12-0.71c0-0.63-0.22-1.09-0.67-1.37
			s-1.09-0.43-1.92-0.43c-0.96,0-1.64,0.26-2.05,0.78c-0.23,0.29-0.37,0.72-0.44,1.29h-1.72c0.03-1.36,0.47-2.3,1.32-2.83
			s1.82-0.8,2.93-0.8c1.29,0,2.34,0.25,3.14,0.74c0.8,0.49,1.2,1.26,1.2,2.3v6.33c0,0.19,0.04,0.35,0.12,0.46
			c0.08,0.12,0.24,0.17,0.5,0.17c0.08,0,0.17,0,0.28-0.02c0.1-0.01,0.21-0.03,0.33-0.05v1.36c-0.29,0.08-0.51,0.13-0.66,0.15
			s-0.36,0.03-0.62,0.03c-0.64,0-1.1-0.23-1.38-0.68c-0.15-0.24-0.26-0.58-0.32-1.01c-0.38,0.49-0.92,0.92-1.62,1.28
			s-1.48,0.54-2.33,0.54c-1.02,0-1.85-0.31-2.5-0.93c-0.65-0.62-0.97-1.39-0.97-2.32c0-1.02,0.32-1.81,0.95-2.37
			c0.64-0.56,1.47-0.9,2.5-1.03L217.89,19.72z M214,24.7c0.39,0.31,0.85,0.46,1.38,0.46c0.65,0,1.28-0.15,1.89-0.45
			c1.03-0.5,1.54-1.31,1.54-2.45v-1.48c-0.23,0.14-0.52,0.26-0.87,0.36c-0.35,0.1-0.7,0.16-1.04,0.21l-1.12,0.14
			c-0.67,0.09-1.17,0.23-1.51,0.42c-0.57,0.32-0.86,0.83-0.86,1.53C213.42,23.98,213.61,24.4,214,24.7z"/>
		<path class="st1" d="M223.73,11.3h1.85v15.06h-1.85V11.3z"/>
		<path class="st1" d="M241.39,12.4c1.04,1,1.62,2.15,1.73,3.42h-1.99c-0.22-0.97-0.66-1.74-1.32-2.31s-1.59-0.85-2.78-0.85
			c-1.46,0-2.63,0.52-3.53,1.56c-0.9,1.04-1.34,2.64-1.34,4.8c0,1.77,0.4,3.2,1.21,4.29s2.02,1.65,3.62,1.65
			c1.48,0,2.6-0.58,3.37-1.73c0.41-0.61,0.71-1.41,0.92-2.4h1.99c-0.18,1.59-0.76,2.92-1.74,3.99c-1.18,1.29-2.78,1.94-4.78,1.94
			c-1.73,0-3.18-0.53-4.36-1.59c-1.55-1.4-2.32-3.57-2.32-6.5c0-2.22,0.58-4.05,1.74-5.47c1.26-1.55,2.99-2.32,5.2-2.32
			C238.88,10.89,240.35,11.39,241.39,12.4z"/>
		<path class="st1" d="M253.61,16.48c0.97,0.94,1.46,2.33,1.46,4.16c0,1.77-0.43,3.23-1.28,4.38s-2.18,1.73-3.98,1.73
			c-1.5,0-2.69-0.51-3.57-1.53c-0.88-1.02-1.32-2.39-1.32-4.11c0-1.84,0.46-3.31,1.4-4.41c0.93-1.09,2.18-1.64,3.75-1.64
			C251.45,15.06,252.64,15.54,253.61,16.48z M252.46,23.78c0.45-0.92,0.67-1.95,0.67-3.09c0-1.02-0.16-1.86-0.49-2.5
			c-0.51-1.01-1.4-1.52-2.66-1.52c-1.12,0-1.93,0.43-2.43,1.29s-0.76,1.9-0.76,3.11c0,1.17,0.25,2.14,0.76,2.92s1.31,1.17,2.41,1.17
			C251.18,25.16,252.01,24.7,252.46,23.78z"/>
		<path class="st1" d="M257.38,11.3h1.85v15.06h-1.85V11.3z"/>
		<path class="st1" d="M262.28,11.3h1.85v15.06h-1.85V11.3z"/>
		<path class="st1" d="M273.68,15.68c0.73,0.37,1.28,0.84,1.66,1.42c0.37,0.55,0.61,1.2,0.73,1.94c0.11,0.51,0.16,1.31,0.16,2.42
			h-7.99c0.03,1.12,0.29,2.01,0.78,2.69s1.25,1.01,2.27,1.01c0.96,0,1.72-0.32,2.29-0.96c0.32-0.37,0.54-0.8,0.68-1.29h1.81
			c-0.05,0.4-0.21,0.85-0.48,1.35c-0.27,0.5-0.57,0.9-0.9,1.21c-0.56,0.55-1.24,0.92-2.07,1.11c-0.44,0.11-0.94,0.16-1.5,0.16
			c-1.36,0-2.51-0.5-3.45-1.49c-0.94-0.99-1.42-2.39-1.42-4.18c0-1.76,0.47-3.2,1.43-4.3s2.19-1.65,3.73-1.65
			C272.2,15.14,272.95,15.32,273.68,15.68z M274.34,20c-0.07-0.8-0.25-1.44-0.52-1.92c-0.5-0.89-1.34-1.33-2.51-1.33
			c-0.84,0-1.54,0.31-2.11,0.92s-0.87,1.39-0.91,2.33H274.34z"/>
		<path class="st1" d="M286,15.97c0.78,0.6,1.24,1.64,1.4,3.11h-1.79c-0.11-0.68-0.36-1.24-0.75-1.69
			c-0.39-0.45-1.02-0.67-1.88-0.67c-1.18,0-2.02,0.57-2.52,1.72c-0.33,0.74-0.49,1.66-0.49,2.75c0,1.1,0.23,2.02,0.7,2.78
			c0.46,0.75,1.2,1.13,2.19,1.13c0.77,0,1.37-0.23,1.82-0.7c0.45-0.47,0.76-1.1,0.93-1.92h1.79c-0.21,1.46-0.72,2.52-1.54,3.19
			c-0.82,0.67-1.87,1.01-3.15,1.01c-1.44,0-2.58-0.52-3.44-1.57s-1.28-2.36-1.28-3.93c0-1.93,0.47-3.43,1.4-4.5s2.13-1.61,3.58-1.61
			C284.21,15.06,285.22,15.36,286,15.97z"/>
		<path class="st1" d="M290.14,12.32H292v3.07h1.75v1.51H292v7.17c0,0.38,0.13,0.64,0.39,0.77c0.14,0.08,0.38,0.11,0.72,0.11
			c0.09,0,0.18,0,0.29-0.01s0.22-0.02,0.36-0.03v1.47c-0.21,0.06-0.43,0.11-0.66,0.13c-0.23,0.03-0.48,0.04-0.74,0.04
			c-0.86,0-1.45-0.22-1.75-0.66c-0.31-0.44-0.46-1.01-0.46-1.72v-7.27h-1.49v-1.51h1.49V12.32z"/>
		<path class="st1" d="M295.81,11.3h1.88v2.09h-1.88V11.3z M295.81,15.43h1.88v10.93h-1.88V15.43z"/>
		<path class="st1" d="M308.43,16.48c0.97,0.94,1.46,2.33,1.46,4.16c0,1.77-0.43,3.23-1.28,4.38s-2.18,1.73-3.98,1.73
			c-1.5,0-2.69-0.51-3.57-1.53c-0.88-1.02-1.32-2.39-1.32-4.11c0-1.84,0.46-3.31,1.39-4.41s2.18-1.64,3.75-1.64
			C306.28,15.06,307.46,15.54,308.43,16.48z M307.29,23.78c0.45-0.92,0.67-1.95,0.67-3.09c0-1.02-0.16-1.86-0.49-2.5
			c-0.51-1.01-1.4-1.52-2.66-1.52c-1.12,0-1.93,0.43-2.43,1.29s-0.76,1.9-0.76,3.11c0,1.17,0.25,2.14,0.76,2.92s1.31,1.17,2.41,1.17
			C306.01,25.16,306.84,24.7,307.29,23.78z"/>
		<path class="st1" d="M312.16,15.38h1.75v1.56c0.52-0.64,1.07-1.1,1.65-1.38s1.23-0.42,1.94-0.42c1.56,0,2.61,0.54,3.16,1.63
			c0.3,0.59,0.45,1.45,0.45,2.55v7.04h-1.88v-6.92c0-0.67-0.1-1.21-0.3-1.62c-0.33-0.68-0.92-1.03-1.78-1.03
			c-0.44,0-0.8,0.04-1.08,0.13c-0.51,0.15-0.95,0.45-1.33,0.9c-0.31,0.36-0.51,0.74-0.6,1.12c-0.09,0.39-0.14,0.94-0.14,1.66v5.75
			h-1.85V15.38z"/>
		<path class="st1" d="M324.93,22.92c0.06,0.62,0.21,1.09,0.47,1.42c0.47,0.59,1.3,0.89,2.47,0.89c0.7,0,1.31-0.15,1.84-0.45
			c0.53-0.3,0.8-0.76,0.8-1.38c0-0.47-0.21-0.83-0.64-1.08c-0.27-0.15-0.81-0.32-1.6-0.52l-1.49-0.37c-0.95-0.23-1.65-0.49-2.1-0.78
			c-0.81-0.5-1.21-1.19-1.21-2.07c0-1.04,0.38-1.88,1.14-2.52s1.78-0.96,3.06-0.96c1.68,0,2.89,0.49,3.63,1.46
			c0.46,0.62,0.69,1.28,0.68,1.99h-1.74c-0.04-0.41-0.19-0.79-0.45-1.13c-0.43-0.48-1.19-0.72-2.26-0.72c-0.71,0-1.25,0.13-1.62,0.4
			s-0.55,0.62-0.55,1.05c0,0.48,0.24,0.86,0.72,1.14c0.28,0.17,0.69,0.32,1.23,0.45l1.24,0.3c1.35,0.32,2.26,0.63,2.72,0.93
			c0.72,0.47,1.08,1.21,1.08,2.23c0,0.98-0.38,1.82-1.13,2.53s-1.89,1.07-3.43,1.07c-1.65,0-2.83-0.37-3.51-1.11
			c-0.69-0.74-1.06-1.66-1.11-2.75H324.93z"/>
	</g>
	<g>
	</g>
	<g>
	</g>
	<g>
	</g>
	<g>
	</g>
	<g>
	</g>
</g>
</svg>
