<svg id="Layer_1" data-name="Layer 1" xmlns="http://www.w3.org/2000/svg" viewBox="0 0 164.48 30.6"><defs><style>.cls-1{fill:#231f20;}</style></defs><title>ucla-library-logo-blk_resized</title><polygon class="cls-1" points="92.04 9.19 95.56 9.19 95.56 23.6 103.7 23.6 103.7 26.53 92.04 26.53 92.04 9.19"/><path class="cls-1" d="M105.54,9.63h3.3v3h-3.3Zm0,4.9h3.3V27h-3.3Z" transform="translate(-0.59 -0.44)"/><path class="cls-1" d="M114.13,25.42h0V27H110.9V9.63h3.3V16h.08a3.88,3.88,0,0,1,3.46-1.84c3.13,0,5.36,2.69,5.36,6.57s-2.13,6.57-5.26,6.57a4.13,4.13,0,0,1-3.71-1.91m5.63-4.66c0-2.3-.93-3.9-2.77-3.9-2.08,0-2.86,1.67-2.86,4s1.14,3.73,3,3.73,2.65-1.41,2.65-3.81" transform="translate(-0.59 -0.44)"/><path class="cls-1" d="M127.84,16.52h.07c.75-1.41,1.6-2.14,3.06-2.14a2.24,2.24,0,0,1,.77.1v2.89h-.07c-2.16-.22-3.71.92-3.71,3.54V27h-3.3V14.53h3.18Z" transform="translate(-0.59 -0.44)"/><path class="cls-1" d="M140.26,25.59h0c-.63.94-1.53,1.67-3.66,1.67-2.55,0-4.34-1.33-4.34-3.81,0-2.74,2.23-3.61,5-4,2.06-.29,3-.46,3-1.4s-.7-1.48-2.09-1.48c-1.55,0-2.3.56-2.4,1.74H132.8c.1-2.18,1.72-4.1,5.36-4.1s5.23,1.68,5.23,4.59v6.32c0,.95.15,1.5.44,1.73V27h-3.18a3.51,3.51,0,0,1-.38-1.38m0-3V20.71a8.81,8.81,0,0,1-2.3.73c-1.72.39-2.57.78-2.57,1.94S136.2,25,137.36,25c1.89,0,2.93-1.17,2.93-2.38" transform="translate(-0.59 -0.44)"/><path class="cls-1" d="M148.62,16.52h.07c.75-1.41,1.6-2.14,3.06-2.14a2.24,2.24,0,0,1,.77.1v2.89h-.07c-2.16-.22-3.71.92-3.71,3.54V27h-3.3V14.53h3.18Z" transform="translate(-0.59 -0.44)"/><path class="cls-1" d="M154.4,28.45h1.16c1.31,0,1.84-.68,1.84-1.7a10.39,10.39,0,0,0-.94-3.37l-3.35-8.85h3.47l1.84,5.6c.39,1.14.8,2.71.8,2.71h.05s.34-1.57.73-2.71l1.74-5.6h3.33l-4.34,12.75c-.95,2.77-1.87,3.76-4.39,3.76H154.4Z" transform="translate(-0.59 -0.44)"/><path class="cls-1" d="M.66,19.62A26.3,26.3,0,0,1,.6,16.81L1.94,1.6h5L5.56,16.94c-.29,3.32,1,5.69,4.32,5.69s5.18-2.41,5.48-5.36L16.77,1.6h5L20.37,17.08c-.56,6-4.51,10.42-10.9,10.42-5,0-8.2-3.22-8.8-7.88" transform="translate(-0.59 -0.44)"/><path class="cls-1" d="M22.89,14.47C23.54,7.17,28.47,1.12,37,1.12A11.55,11.55,0,0,1,43.51,3l-.57,6A7.36,7.36,0,0,0,36.5,6c-5.3,0-8.2,3.68-8.62,8.33s1.94,8.22,7.07,8.22a9.53,9.53,0,0,0,7.1-3.13l-.56,6.19a14.21,14.21,0,0,1-6.93,1.91c-8.42,0-12.28-6.25-11.67-13.09" transform="translate(-0.59 -0.44)"/><path class="cls-1" d="M47.49,1.6h5L50.64,22.25h7.11c.5,0,2.2,0,2.66-.05C60.38,22.45,60,27,60,27H45.23Z" transform="translate(-0.59 -0.44)"/><path class="cls-1" d="M73.36,11.07A6.62,6.62,0,0,0,73.72,10h.08A6.48,6.48,0,0,0,74,11.08c.27,1.16,2.2,7.58,2.2,7.58H69.93l3.43-7.58M74.63.44h-.34L60.69,27H66l1.91-4h9.58l1.2,4h5.26Z" transform="translate(-0.59 -0.44)"/></svg>